# 3ds Max Wavefront OBJ Exporter v0.99 - (c)2007 guruware
# File Created: 15.04.2022 15:19:03

mtllib bagay.mtl

#
# object __
#

v  -224.848145 273.680756 -23.041138
v  226.968491 273.680756 -23.041162
v  226.968460 -357.410187 -23.041187
v  -224.848145 -357.410187 -23.041187
v  226.968460 -357.410187 94.719498
v  226.968491 273.680756 94.719559
v  -224.848145 273.680756 94.719582
v  -224.848145 -357.410187 94.719536
v  226.968460 -357.410187 26.338648
v  -224.848145 -357.410187 26.338673
v  226.968491 273.680756 26.338697
v  -224.848145 358.767273 -23.041090
v  -224.848145 358.767273 26.338795
v  226.968491 358.767273 26.338745
v  226.968491 358.767273 -23.041113
v  -224.848145 273.680756 26.338720
v  1.060156 358.767212 313.599915
v  1.060156 273.680725 313.599854
v  114.014305 273.680725 301.668182
v  114.014336 358.767212 301.668213
v  -224.848145 358.767273 94.719643
v  -224.848145 358.767242 237.781357
v  -111.893997 358.767242 237.781357
v  -224.848145 273.680756 94.719658
v  -224.848145 273.680756 237.781296
v  226.968491 273.680756 237.781250
v  114.014305 273.680756 237.781250
v  226.968491 358.767273 94.719604
v  226.968491 358.767242 237.781357
v  -111.893944 358.767212 301.668213
v  1.060156 358.767242 237.781357
v  -224.848145 273.680756 268.016510
v  -224.848145 358.767212 268.016571
v  1.060156 273.680756 237.781281
v  226.968491 358.767212 268.016571
v  226.968491 273.680725 268.016479
v  -111.893997 273.680756 301.668182
v  114.014305 358.767242 237.781357
v  -111.893997 273.680756 237.781281
v  3.365479 -358.767273 113.131615
v  3.365479 146.872559 113.131615
v  -228.832962 146.872559 113.131653
v  -228.832962 -358.767273 113.131653
v  233.052277 -358.767273 63.628151
v  233.052277 146.872543 63.628151
v  233.160599 146.872559 113.131569
v  233.160599 -358.767273 113.131569
v  -233.160553 146.872559 59.184792
v  -233.160553 -358.767273 59.184792
v  -224.663681 -358.767273 59.236500
v  -224.663681 146.872559 59.236500
v  -224.997360 -358.767273 93.904457
v  3.365479 -358.767273 93.904419
v  227.070297 -358.767273 93.904381
v  227.097214 -358.767273 63.657082
v  227.097214 146.872543 63.657082
v  227.070297 146.872559 93.904373
v  3.365479 146.872559 93.904419
v  -224.997360 146.872559 93.904457
# 59 vertices

vn -0.707100 0.000000 -0.707100
vn 0.707100 0.000000 -0.707100
vn 0.577400 -0.577400 -0.577400
vn -0.577400 -0.577400 -0.577400
vn 0.577400 -0.577400 0.577400
vn 0.904500 -0.301500 0.301500
vn -0.904500 -0.301500 0.301500
vn -0.577400 -0.577400 0.577400
vn 0.707100 -0.707100 -0.000000
vn -0.707100 -0.707100 -0.000000
vn 1.000000 -0.000000 -0.000000
vn -0.577400 0.577400 -0.577300
vn -0.707100 0.707100 0.000000
vn 0.707100 0.707100 0.000000
vn 0.577400 0.577400 -0.577400
vn -1.000000 0.000000 0.000000
vn -0.000000 0.684200 0.729300
vn -0.000000 -0.684200 0.729300
vn 0.142500 -0.687000 0.712600
vn 0.142500 0.687000 0.712600
vn 0.000000 1.000000 0.000000
vn -0.707100 -0.707100 0.000000
vn 0.000000 -1.000000 -0.000000
vn -0.142500 0.687000 0.712600
vn -0.644900 -0.594100 0.480800
vn -0.644900 0.594100 0.480800
vn 0.644900 0.594100 0.480800
vn 0.644900 -0.594100 0.480800
vn -0.142500 -0.687000 0.712600
vn 0.000000 -0.707100 0.707100
vn 0.000000 0.707100 0.707100
vn -0.551700 0.581700 0.597700
vn -0.551700 -0.581700 0.597700
vn 0.575400 -0.577200 -0.579500
vn 0.575400 0.577200 -0.579500
vn 0.578000 0.577200 0.576800
vn 0.578000 -0.577200 0.576800
vn -0.600600 0.573000 -0.557600
vn -0.600500 -0.572900 -0.557800
vn 0.004300 -0.706400 -0.707800
vn 0.004300 0.706200 -0.708000
vn -0.003400 -0.708400 -0.705800
vn -0.003400 0.708400 -0.705800
vn 0.000000 1.000000 -0.000000
# 44 vertex normals

vt 0.920700 0.037500 0.000000
vt 0.921600 0.327200 0.000000
vt 0.536000 0.319700 0.000000
vt 0.535100 0.045200 0.000000
vt 0.338200 0.591000 0.000000
vt 0.345600 0.976600 0.000000
vt 0.063400 0.976600 0.000000
vt 0.070800 0.591000 0.000000
vt 0.959400 0.949800 0.000000
vt 0.959400 0.980000 0.000000
vt 0.683600 0.980000 0.000000
vt 0.683600 0.949800 0.000000
vt 0.300000 0.240700 0.000000
vt 0.300000 0.270900 0.000000
vt 0.024100 0.270900 0.000000
vt 0.024100 0.240700 0.000000
vt 0.152100 0.057100 0.000000
vt 0.137400 0.083400 0.000000
vt 0.092100 0.058000 0.000000
vt 0.106800 0.031700 0.000000
vt 0.960600 0.046500 0.000000
vt 0.961600 0.317300 0.000000
vt 0.335000 0.477500 0.000000
vt 0.310400 0.431700 0.000000
vt 0.371500 0.398900 0.000000
vt 0.396100 0.444700 0.000000
vt 0.626400 0.491500 0.000000
vt 0.626400 0.521600 0.000000
vt 0.574400 0.521600 0.000000
vt 0.574400 0.491500 0.000000
vt 0.300000 0.312600 0.000000
vt 0.300000 0.400000 0.000000
vt 0.231000 0.400000 0.000000
vt 0.071700 0.094400 0.000000
vt 0.117000 0.119800 0.000000
vt 0.074400 0.196000 0.000000
vt 0.029000 0.170700 0.000000
vt 0.374200 0.020000 0.000000
vt 0.405800 0.101400 0.000000
vt 0.341500 0.126400 0.000000
vt 0.626400 0.563400 0.000000
vt 0.626400 0.650700 0.000000
vt 0.574400 0.650700 0.000000
vt 0.574400 0.563400 0.000000
vt 0.231000 0.439000 0.000000
vt 0.162100 0.446300 0.000000
vt 0.162100 0.400000 0.000000
vt 0.065300 0.212200 0.000000
vt 0.020000 0.186800 0.000000
vt 0.355600 0.162800 0.000000
vt 0.294000 0.194500 0.000000
vt 0.277200 0.151300 0.000000
vt 0.626400 0.669200 0.000000
vt 0.574400 0.669200 0.000000
vt 0.210400 0.544300 0.000000
vt 0.185900 0.498500 0.000000
vt 0.249300 0.464500 0.000000
vt 0.273900 0.510200 0.000000
vt 0.435000 0.364900 0.000000
vt 0.459500 0.410700 0.000000
vt 0.024100 0.418500 0.000000
vt 0.024100 0.400000 0.000000
vt 0.093100 0.400000 0.000000
vt 0.093100 0.439000 0.000000
vt 0.300000 0.418500 0.000000
vt 0.155300 0.218500 0.000000
vt 0.148600 0.201300 0.000000
vt 0.212900 0.176300 0.000000
vt 0.227000 0.212700 0.000000
vt 0.412500 0.118600 0.000000
vt 0.024100 0.312600 0.000000
vt 0.052800 0.570100 0.000000
vt 0.356200 0.570100 0.000000
vt 0.389000 0.971400 0.000000
vt 0.020000 0.971400 0.000000
vt 0.653000 0.662000 0.000000
vt 0.961700 0.662000 0.000000
vt 0.961700 0.803800 0.000000
vt 0.653000 0.803800 0.000000
vt 0.653000 0.491500 0.000000
vt 0.961700 0.491500 0.000000
vt 0.961700 0.521700 0.000000
vt 0.653000 0.521700 0.000000
vt 0.961700 0.836800 0.000000
vt 0.653000 0.836800 0.000000
vt 0.653100 0.915800 0.000000
vt 0.653000 0.910700 0.000000
vt 0.961900 0.910600 0.000000
vt 0.961700 0.915800 0.000000
vt 0.429600 0.735000 0.000000
vt 0.433900 0.743600 0.000000
vt 0.403700 0.736800 0.000000
vt 0.404900 0.731600 0.000000
vt 0.577000 0.742400 0.000000
vt 0.576400 0.742500 0.000000
vt 0.430400 0.758000 0.000000
vt 0.434200 0.749200 0.000000
vt 0.406000 0.762800 0.000000
vt 0.404500 0.757700 0.000000
vt 0.430100 0.735000 0.000000
vt 0.434400 0.743600 0.000000
vt 0.404200 0.736800 0.000000
vt 0.405400 0.731600 0.000000
vt 0.577500 0.742400 0.000000
vt 0.430900 0.758000 0.000000
vt 0.434700 0.749200 0.000000
vt 0.406500 0.762800 0.000000
vt 0.404900 0.757600 0.000000
# 108 texture coords

o __
g __
usemtl ??_07___Default
s 2
f 1/1/1 2/2/2 3/3/3 4/4/4 
s 4
f 5/5/5 6/6/6 7/7/7 8/8/8 
s 8
f 3/9/3 9/10/9 10/11/10 4/12/4 
s 16
f 2/9/2 11/10/11 9/11/9 3/12/3 
s 32
f 12/13/12 13/14/13 14/15/14 15/16/15 
s 64
f 1/17/1 16/18/16 13/19/13 12/20/12 
s 2
f 12/21/12 15/22/15 2/2/2 1/1/1 
s 4
f 17/23/17 18/24/18 19/25/19 20/26/20 
s 16
f 15/27/15 14/28/14 11/29/11 2/30/2 
s 64
f 4/9/4 10/10/10 16/11/16 1/12/1 
s off
f 21/31/13 22/32/13 23/33/21 
f 21/34/13 7/35/7 24/35/10 25/36/22 22/37/13 
f 6/38/6 26/39/9 27/40/23 
f 28/41/14 29/42/14 26/43/9 6/44/6 
f 30/45/24 17/46/17 31/47/21 23/33/21 
f 32/48/25 33/49/26 22/37/13 25/36/22 
f 19/50/19 18/51/18 34/52/23 27/40/23 
f 35/53/27 36/54/28 26/43/9 29/42/14 
s 4
f 33/55/26 32/56/25 37/57/29 30/58/24 
f 30/58/24 37/57/29 18/24/18 17/23/17 
f 36/59/28 35/60/27 20/26/20 19/25/19 
s off
f 35/61/27 29/62/14 38/63/21 20/64/20 
f 20/64/20 38/63/21 31/47/21 17/46/17 
f 23/33/21 22/32/13 33/65/26 30/45/24 
f 32/66/25 25/67/22 39/68/23 37/69/29 
f 37/69/29 39/68/23 34/52/23 18/51/18 
f 27/40/23 26/39/9 36/70/28 19/50/19 
f 39/68/23 25/67/22 24/35/10 
f 34/52/23 7/35/7 6/38/6 27/40/23 
f 39/68/23 24/35/10 7/35/7 34/52/23 
f 38/63/21 29/62/14 28/71/14 
f 31/47/21 28/71/14 21/31/13 23/33/21 
f 31/47/21 38/63/21 28/71/14 
s 8
f 5/5/5 8/8/8 10/72/10 9/73/9 
s 16
f 6/6/6 5/5/5 9/73/9 11/74/11 
s 32
f 21/31/13 28/71/14 14/15/14 13/14/13 
s 64
f 7/35/7 21/34/13 13/19/13 16/18/16 
s 16
f 28/41/14 6/44/6 11/29/11 14/28/14 
s 64
f 8/8/8 7/7/7 16/75/16 10/72/10 
s 1
f 40/76/30 41/77/31 42/78/32 43/79/33 
f 44/80/34 45/81/35 46/82/36 47/83/37 
f 47/83/37 46/82/36 41/77/31 40/76/30 
f 48/84/38 49/85/39 43/79/33 42/78/32 
s off
f 50/86/40 49/87/39 48/88/38 51/89/41 
f 52/90/23 43/91/33 49/92/39 50/93/40 
f 52/90/23 53/94/23 40/95/30 43/91/33 
f 54/96/23 47/97/37 40/95/30 53/94/23 
f 54/96/23 55/98/42 44/99/34 47/97/37 
f 56/88/43 45/89/35 44/86/34 55/87/42 
f 57/100/44 46/101/36 45/102/35 56/103/43 
f 57/100/44 58/104/21 41/94/31 46/101/36 
f 59/105/21 42/106/32 41/94/31 58/104/21 
f 59/105/21 51/107/41 48/108/38 42/106/32 
# 48 polygons - 5 triangles

#
# object Object001
#

v  -87.703079 229.361328 95.390907
v  91.857079 229.361328 95.390907
v  91.857079 192.034912 95.390907
v  -87.703079 192.034912 95.390907
v  91.857079 229.361328 129.150467
v  -87.703079 229.361328 129.150467
v  -87.703079 192.034927 129.150467
v  91.857079 192.034927 129.150467
v  91.857079 164.173874 100.691528
v  91.857079 164.173874 123.849846
v  -87.703079 164.173874 123.849846
v  -87.703079 164.173874 100.691528
v  -87.703079 257.222382 100.691528
v  -87.703079 257.222382 123.849831
v  91.857079 257.222382 123.849831
v  91.857079 257.222382 100.691528
# 16 vertices

vn -0.686615 0.068201 -0.723815
vn 0.686615 0.068201 -0.723815
vn 0.686615 -0.068201 -0.723815
vn -0.686615 -0.068201 -0.723815
vn 0.686615 0.068201 0.723815
vn -0.686615 0.068201 0.723815
vn -0.686615 -0.068201 0.723815
vn 0.686615 -0.068201 0.723815
vn 0.587884 -0.623183 -0.515786
vn 0.587914 -0.623215 0.515713
vn -0.587788 -0.623188 0.515890
vn -0.587884 -0.623183 -0.515786
vn -0.587884 0.623183 -0.515786
vn -0.587914 0.623215 0.515713
vn 0.587914 0.623215 0.515713
vn 0.587884 0.623183 -0.515786
# 16 vertex normals

vt 0.566700 0.908100 0.000000
vt 0.494100 0.826700 0.000000
vt 0.510700 0.811900 0.000000
vt 0.583300 0.893300 0.000000
vt 0.457700 0.858700 0.000000
vt 0.530800 0.940600 0.000000
vt 0.513700 0.955700 0.000000
vt 0.440700 0.873900 0.000000
vt 0.417300 0.894900 0.000000
vt 0.427800 0.885500 0.000000
vt 0.500800 0.967300 0.000000
vt 0.490300 0.976700 0.000000
vt 0.479900 0.812200 0.000000
vt 0.497700 0.796200 0.000000
vt 0.554400 0.919800 0.000000
vt 0.543700 0.929000 0.000000
vt 0.470700 0.847200 0.000000
vt 0.481000 0.837600 0.000000
vt 0.597400 0.907900 0.000000
vt 0.579500 0.923800 0.000000
vt 0.522800 0.799900 0.000000
vt 0.596600 0.882600 0.000000
vt 0.470400 0.827400 0.000000
vt 0.513800 0.788300 0.000000
vt 0.607100 0.892900 0.000000
vt 0.563300 0.931600 0.000000
# 26 texture coords

o Object001
g Object001
usemtl ??_07___Default
s 2
f 60/109/45 61/110/46 62/111/47 63/112/48 
s 4
f 64/113/49 65/114/50 66/115/51 67/116/52 
s 8
f 68/117/53 69/118/54 70/119/55 71/120/56 
s 16
f 61/110/46 64/121/49 67/122/52 62/111/47 
s 32
f 72/123/57 73/124/58 74/125/59 75/126/60 
s 64
f 63/112/48 66/127/51 65/128/50 60/109/45 
s 2
f 72/123/57 75/126/60 61/110/46 60/109/45 
f 68/129/53 71/130/56 63/112/48 62/111/47 
s 4
f 74/125/59 73/124/58 65/114/50 64/113/49 
f 70/119/55 69/118/54 67/116/52 66/115/51 
s 16
f 75/126/60 74/131/59 64/121/49 61/110/46 
f 69/132/54 68/129/53 62/111/47 67/122/52 
s 64
f 71/130/56 70/133/55 66/127/51 63/112/48 
f 73/134/58 72/123/57 60/109/45 65/128/50 
# 14 polygons

