# 3ds Max Wavefront OBJ Exporter v0.99 - (c)2007 guruware
# File Created: 20.04.2022 01:04:46

mtllib ???.mtl

#
# object ???
#

v  34.4344 112.1569 -49.4118
v  34.4344 112.1569 0.0000
v  34.4344 98.9733 0.0000
v  34.4344 -138.8235 -0.0000
v  28.4344 -122.3522 -0.0000
v  -24.3779 -122.3522 -0.0000
v  -24.3785 -138.8235 -0.0000
v  28.4344 106.1569 0.0000
v  28.4344 98.9728 0.0000
v  31.4344 98.9730 0.0000
v  -2.6142 -3.1810 0.0000
v  -6.2199 -3.1810 0.0000
v  -6.2199 -33.4823 -0.0000
v  -2.6142 -33.4823 -0.0000
v  28.4344 72.8178 0.0000
v  28.4344 91.1610 0.0000
v  -24.3779 98.9728 0.0000
v  -24.3779 72.8178 0.0000
v  -24.3779 -116.2403 -0.0000
v  28.4344 -116.2403 -0.0000
v  28.4344 -101.4992 -0.0000
v  -14.6331 -3.1810 0.0000
v  -24.3779 -3.1810 0.0000
v  -24.3779 -33.4823 -0.0000
v  -14.6331 -33.4823 -0.0000
v  28.4344 -33.4823 -0.0000
v  28.4344 -12.2621 0.0000
v  28.4344 -3.1810 0.0000
v  -24.3779 106.1569 0.0000
v  28.4344 -95.1370 -0.0000
v  31.4344 -3.1810 0.0000
v  31.4344 72.8173 0.0000
v  28.4344 98.9728 1.1634
v  28.4344 91.1610 1.1634
v  29.9344 91.1611 2.4974
v  29.9344 98.9729 2.4974
v  28.4344 -3.1810 1.1633
v  28.4344 -12.2621 1.1633
v  29.9344 -12.2621 2.4974
v  29.9344 -3.1810 2.4974
v  31.4344 -95.1371 -0.0000
v  31.4344 -33.4824 -0.0000
v  28.4344 -95.1370 1.1633
v  28.4344 -101.4992 1.1633
v  29.9344 -101.4995 2.4974
v  29.9344 -95.1370 2.4974
v  34.4344 -116.2409 -0.0000
v  31.4344 -116.2406 -0.0000
v  34.4344 -3.1810 0.0000
v  34.4344 72.8168 0.0000
v  31.4344 91.1611 0.0000
v  31.4344 -12.2621 -0.0000
v  34.4344 -95.1371 -0.0000
v  34.4344 -33.4824 -0.0000
v  31.4344 -101.4999 -0.0000
v  31.4344 98.9730 1.1634
v  31.4344 91.1611 1.1634
v  31.4344 -3.1810 1.1633
v  31.4344 -12.2621 1.1633
v  31.4344 -95.1371 1.1633
v  31.4344 -101.4999 1.1633
v  34.4344 -138.8235 -49.4118
v  -24.3779 -95.1370 -0.0000
v  -24.3779 112.1569 0.0000
v  -24.3781 -138.8235 -49.4118
v  -24.3796 112.1569 -49.4118
v  -25.6723 106.1569 0.0000
v  -25.6723 98.9728 0.0000
v  -25.6723 -3.1810 0.0000
v  -25.6723 -33.4823 -0.0000
v  -25.6723 -95.1370 -0.0000
v  -25.6723 -116.2403 -0.0000
v  -25.6723 -122.3522 -0.0000
v  -25.6723 72.8178 0.0000
v  -25.6723 112.1569 0.0000
v  -25.6729 -138.8235 -0.0000
v  -25.6740 112.1569 -49.4118
v  -25.6725 -138.8235 -49.4118
v  -83.9685 -138.8235 -49.4118
v  -83.8170 -138.8235 0.0000
v  -83.8170 -116.2316 0.0000
v  -83.8170 -95.1371 0.0000
v  -83.8170 112.1569 -0.0000
v  -77.8349 106.1469 -0.0000
v  -77.8349 -122.3629 0.0000
v  -77.8349 -116.2325 0.0000
v  -80.8288 -116.2319 0.0000
v  -48.5716 -33.4835 0.0000
v  -44.9660 -33.4835 0.0000
v  -44.9660 -3.1789 -0.0000
v  -48.5716 -3.1789 -0.0000
v  -77.8349 -95.1371 0.0000
v  -77.8349 -101.4989 0.0000
v  -36.5528 -33.4835 0.0000
v  -36.5528 -3.1789 -0.0000
v  -77.8349 -3.1789 -0.0000
v  -77.8349 -12.2633 0.0000
v  -77.8349 -33.4937 0.0000
v  -77.8349 98.9718 -0.0000
v  -77.8349 72.8219 -0.0000
v  -80.8349 -33.4947 0.0000
v  -80.8349 -95.1371 0.0000
v  -77.8349 -101.4989 1.1634
v  -77.8349 -95.1371 1.1634
v  -79.3349 -95.1371 2.4974
v  -79.3349 -101.4995 2.4974
v  -77.8349 -12.2633 1.1633
v  -77.8349 -3.1814 1.1633
v  -79.3349 -3.1814 2.4974
v  -79.3349 -12.2633 2.4974
v  -80.8349 72.8221 -0.0000
v  -80.8349 -3.1789 -0.0000
v  -77.8349 91.1622 1.1633
v  -77.8349 98.9726 1.1633
v  -79.3349 98.9727 2.4974
v  -79.3349 91.1623 2.4974
v  -83.8170 98.9722 -0.0000
v  -80.8349 98.9720 -0.0000
v  -83.8170 -33.4957 0.0000
v  -80.8349 -101.5000 0.0000
v  -83.8170 -12.2633 0.0000
v  -80.8349 -12.2633 0.0000
v  -83.8170 -3.1789 -0.0000
v  -83.8170 72.8224 -0.0000
v  -83.8170 91.1625 -0.0000
v  -80.8349 91.1624 -0.0000
v  -80.8349 -101.5000 1.1634
v  -80.8349 -95.1371 1.1634
v  -80.8349 -12.2633 1.1633
v  -80.8349 -3.1814 1.1633
v  -77.8349 91.1622 -0.0000
v  -80.8349 91.1624 1.1633
v  -80.8349 98.9728 1.1633
v  -83.8103 112.1569 -49.4118
# 134 vertices

vn 1.0000 0.0000 -0.0000
vn 0.5774 0.5774 0.5774
vn 0.7071 -0.0000 0.7071
vn 0.7071 0.0000 0.7071
vn -0.0000 -0.0000 1.0000
vn 0.0000 -0.0000 1.0000
vn -0.3015 0.3015 0.9045
vn 0.3015 0.3015 0.9045
vn -0.3015 -0.3015 0.9045
vn -0.3016 -0.3015 0.9045
vn -0.7118 0.6254 0.3196
vn -0.7118 -0.6255 0.3195
vn 0.0000 -0.5838 0.8119
vn 0.0000 0.5838 0.8119
vn -0.7118 0.6255 0.3195
vn -0.0000 -0.5838 0.8119
vn 0.0001 0.5837 0.8120
vn -0.7119 -0.6254 0.3195
vn -0.0002 -0.5838 0.8119
vn 0.3015 -0.3015 0.9045
vn 0.3014 -0.3016 0.9045
vn 0.7118 0.6255 0.3195
vn 0.7118 -0.6255 0.3195
vn 0.7117 -0.6256 0.3196
vn 1.0000 0.0000 0.0000
vn -0.0000 0.7071 0.7071
vn -0.0000 -0.7071 -0.7071
vn 0.0000 -1.0000 -0.0000
vn -0.0000 0.7071 -0.7071
vn 0.0000 -0.4472 0.8944
vn 0.0000 0.7071 -0.7071
vn 0.0000 -0.7071 -0.7071
vn -0.5783 -0.5771 -0.5766
vn -0.5764 -0.5775 0.5782
vn -0.7060 0.0000 0.7082
vn -0.5774 0.5774 0.5773
vn 0.0000 0.0000 1.0000
vn -0.0000 0.0000 1.0000
vn 0.3016 -0.3015 0.9045
vn 0.3010 0.3014 0.9048
vn 0.3017 0.3016 0.9045
vn 0.7119 -0.6254 0.3195
vn -0.0000 0.5837 0.8120
vn 0.0001 -0.5838 0.8119
vn 0.7124 0.6245 0.3203
vn -0.0001 -0.5837 0.8120
vn -0.3010 0.3013 0.9048
vn 0.7118 -0.6256 0.3195
vn 0.7116 0.6258 0.3193
vn 0.0000 -0.5837 0.8120
vn -0.7072 0.0000 0.7071
vn -0.3017 0.3016 0.9045
vn -0.3014 -0.3015 0.9046
vn -0.7071 0.0000 0.7071
vn -0.7117 -0.6257 0.3195
vn -0.7124 0.6244 0.3203
vn -0.7116 0.6258 0.3193
vn -0.5773 0.5774 -0.5774
vn -0.0000 -1.0000 -0.0000
# 59 vertex normals

vt 0.1057 0.5198 0.0000
vt 0.0082 0.5081 0.0000
vt 0.0113 0.4821 0.0000
vt 0.5727 0.0200 0.0000
vt 0.5608 0.0527 0.0000
vt 0.4559 0.0527 0.0000
vt 0.4559 0.0200 0.0000
vt 0.5601 0.5184 0.0000
vt 0.5482 0.5064 0.0000
vt 0.5482 0.4921 0.0000
vt 0.5541 0.4921 0.0000
vt 0.7988 0.7650 0.0000
vt 0.7836 0.7650 0.0000
vt 0.7836 0.6373 0.0000
vt 0.7988 0.6373 0.0000
vt 0.2574 0.8976 0.0000
vt 0.2574 0.9341 0.0000
vt 0.1525 0.9496 0.0000
vt 0.1525 0.8976 0.0000
vt 0.1525 0.5219 0.0000
vt 0.2574 0.5219 0.0000
vt 0.2574 0.5512 0.0000
vt 0.1718 0.7466 0.0000
vt 0.1525 0.7466 0.0000
vt 0.1525 0.6864 0.0000
vt 0.1718 0.6864 0.0000
vt 0.1957 0.6864 0.0000
vt 0.2574 0.6864 0.0000
vt 0.2574 0.7285 0.0000
vt 0.2574 0.7466 0.0000
vt 0.1957 0.7466 0.0000
vt 0.8658 0.7650 0.0000
vt 0.8304 0.7650 0.0000
vt 0.8304 0.6373 0.0000
vt 0.8658 0.6373 0.0000
vt 0.2574 0.9496 0.0000
vt 0.2574 0.9639 0.0000
vt 0.1525 0.9639 0.0000
vt 0.1525 0.5098 0.0000
vt 0.2574 0.5098 0.0000
vt 0.2574 0.5638 0.0000
vt 0.5519 0.4397 0.0000
vt 0.5608 0.2890 0.0000
vt 0.5668 0.2894 0.0000
vt 0.5579 0.4401 0.0000
vt 0.7463 0.8716 0.0000
vt 0.8504 0.8255 0.0000
vt 0.8606 0.8485 0.0000
vt 0.7565 0.8947 0.0000
vt 0.5608 0.2293 0.0000
vt 0.5608 0.1068 0.0000
vt 0.5668 0.1068 0.0000
vt 0.5668 0.2293 0.0000
vt 0.5727 0.0649 0.0000
vt 0.5668 0.0649 0.0000
vt 0.5727 0.2896 0.0000
vt 0.5638 0.4405 0.0000
vt 0.5601 0.4923 0.0000
vt 0.5551 0.4765 0.0000
vt 0.5668 0.2715 0.0000
vt 0.5727 0.1068 0.0000
vt 0.5727 0.2293 0.0000
vt 0.5668 0.0942 0.0000
vt 0.5608 0.0942 0.0000
vt 0.5608 0.0649 0.0000
vt 0.5608 0.2715 0.0000
vt 0.5492 0.4760 0.0000
vt 0.7726 0.9310 0.0000
vt 0.7382 0.9462 0.0000
vt 0.7324 0.9329 0.0000
vt 0.7427 0.9100 0.0000
vt 0.7668 0.9177 0.0000
vt 0.7404 0.8583 0.0000
vt 0.8445 0.8122 0.0000
vt 0.9111 0.8696 0.0000
vt 0.8767 0.8848 0.0000
vt 0.8708 0.8715 0.0000
vt 0.8812 0.8486 0.0000
vt 0.9052 0.8563 0.0000
vt 0.0176 0.4305 0.0000
vt 0.0356 0.2805 0.0000
vt 0.0428 0.2208 0.0000
vt 0.1653 0.0247 0.0000
vt 0.0574 0.0991 0.0000
vt 0.0624 0.0575 0.0000
vt 0.0678 0.0129 0.0000
vt 0.1886 0.7466 0.0000
vt 0.1525 0.5638 0.0000
vt 0.1886 0.6864 0.0000
vt 0.4432 0.5064 0.0000
vt 0.4432 0.5184 0.0000
vt 0.5000 0.9336 0.0000
vt 0.3835 0.9338 0.0000
vt 0.3820 0.8368 0.0000
vt 0.4988 0.8354 0.0000
vt 0.5014 0.8353 0.0000
vt 0.6342 0.8341 0.0000
vt 0.6348 0.9323 0.0000
vt 0.5026 0.9335 0.0000
vt 0.7109 0.5187 0.0000
vt 0.5941 0.5187 0.0000
vt 0.5941 0.0200 0.0000
vt 0.7109 0.0200 0.0000
vt 0.3684 0.4157 0.0000
vt 0.3697 0.4012 0.0000
vt 0.3723 0.4017 0.0000
vt 0.3684 0.4159 0.0000
vt 0.3710 0.2700 0.0000
vt 0.3684 0.2086 0.0000
vt 0.3697 0.1450 0.0000
vt 0.3671 0.1449 0.0000
vt 0.3710 0.1021 0.0000
vt 0.3710 0.1023 0.0000
vt 0.3672 0.1141 0.0000
vt 0.3697 0.1146 0.0000
vt 0.3724 0.3628 0.0000
vt 0.3697 0.3627 0.0000
vt 0.4406 0.5183 0.0000
vt 0.4406 0.5064 0.0000
vt 0.4533 0.0527 0.0000
vt 0.4533 0.0200 0.0000
vt 0.5000 0.9335 0.0000
vt 0.7135 0.0200 0.0000
vt 0.7135 0.5187 0.0000
vt 0.8510 0.0261 0.0000
vt 0.9490 0.0200 0.0000
vt 0.9518 0.0648 0.0000
vt 0.9544 0.1066 0.0000
vt 0.3251 0.5183 0.0000
vt 0.3370 0.5064 0.0000
vt 0.3377 0.0200 0.0000
vt 0.3496 0.0527 0.0000
vt 0.3496 0.0649 0.0000
vt 0.3437 0.0649 0.0000
vt 0.2007 0.0741 0.0000
vt 0.2007 0.0615 0.0000
vt 0.3043 0.0322 0.0000
vt 0.3043 0.0741 0.0000
vt 0.2827 0.1966 0.0000
vt 0.3043 0.1966 0.0000
vt 0.3043 0.2568 0.0000
vt 0.2827 0.2568 0.0000
vt 0.2588 0.2568 0.0000
vt 0.2007 0.2568 0.0000
vt 0.2007 0.2388 0.0000
vt 0.2007 0.1966 0.0000
vt 0.2588 0.1966 0.0000
vt 0.2007 0.0322 0.0000
vt 0.2007 0.0200 0.0000
vt 0.3043 0.0200 0.0000
vt 0.3043 0.4598 0.0000
vt 0.3043 0.4741 0.0000
vt 0.2007 0.4741 0.0000
vt 0.2007 0.4598 0.0000
vt 0.2007 0.4079 0.0000
vt 0.3496 0.1075 0.0000
vt 0.3398 0.2296 0.0000
vt 0.3338 0.2292 0.0000
vt 0.3436 0.1070 0.0000
vt 0.3370 0.2892 0.0000
vt 0.3370 0.4402 0.0000
vt 0.3310 0.4402 0.0000
vt 0.3310 0.2892 0.0000
vt 0.3251 0.4921 0.0000
vt 0.3310 0.4921 0.0000
vt 0.3279 0.2288 0.0000
vt 0.3377 0.1068 0.0000
vt 0.3437 0.0942 0.0000
vt 0.3251 0.2710 0.0000
vt 0.3310 0.2712 0.0000
vt 0.3251 0.2892 0.0000
vt 0.3251 0.4402 0.0000
vt 0.3251 0.4766 0.0000
vt 0.3310 0.4766 0.0000
vt 0.9620 0.2289 0.0000
vt 0.9646 0.2710 0.0000
vt 0.9658 0.2890 0.0000
vt 0.8820 0.5239 0.0000
vt 0.9751 0.4398 0.0000
vt 0.9774 0.4761 0.0000
vt 0.9784 0.4916 0.0000
vt 0.9800 0.5178 0.0000
vt 0.3370 0.4921 0.0000
vt 0.3377 0.0649 0.0000
vt 0.2660 0.1966 0.0000
vt 0.3043 0.4079 0.0000
vt 0.2660 0.2568 0.0000
vt 0.3496 0.0942 0.0000
vt 0.3370 0.2716 0.0000
vt 0.2007 0.4443 0.0000
vt 0.3370 0.4766 0.0000
vt 0.8294 0.0200 0.0000
vt 0.8290 0.5187 0.0000
# 193 texture coords

o ???
g ???
usemtl 08___Default
s 16
f 1/1/1 2/2/2 3/3/3 
s off
f 4/4/4 5/5/5 6/6/6 7/7/6 
f 2/8/2 8/9/6 9/10/7 10/11/8 
s 2
f 11/12/6 12/13/6 13/14/6 14/15/6 
f 15/16/6 16/17/9 17/18/6 18/19/5 
f 19/20/6 20/21/5 21/22/10 
f 22/23/5 23/24/5 24/25/6 25/26/6 
f 14/27/6 26/28/6 27/29/9 28/30/7 11/31/6 
f 12/32/6 22/33/5 25/34/6 13/35/6 
f 9/36/7 8/37/6 29/38/6 17/18/6 
f 18/19/5 23/24/5 22/23/5 
f 19/20/6 6/39/6 5/40/5 20/21/5 
f 30/41/7 26/28/6 14/27/6 
s off
f 15/42/6 28/43/7 31/44/8 32/45/6 
f 33/46/11 34/47/12 35/48/13 36/49/14 
f 37/46/15 38/47/12 39/48/16 40/49/17 
f 26/50/6 30/51/7 41/52/8 42/53/6 
f 43/46/15 44/47/18 45/48/19 46/49/14 
f 4/4/4 47/54/3 48/55/5 
f 31/44/8 49/56/3 50/57/3 32/45/6 
f 3/58/3 10/11/8 51/59/20 
f 49/56/3 31/44/8 52/60/20 
f 41/52/8 53/61/3 54/62/3 42/53/6 
f 53/61/3 41/52/8 55/63/21 
f 21/64/10 20/65/5 48/55/5 55/63/21 
f 27/66/9 26/50/6 42/53/6 52/60/20 
f 16/67/9 15/42/6 32/45/6 51/59/20 
f 10/68/8 9/69/7 33/70/11 36/71/14 56/72/22 
f 9/73/7 16/74/9 34/47/12 33/46/11 
f 16/75/9 51/76/20 57/77/23 35/78/13 34/79/12 
f 51/76/20 10/68/8 56/72/22 57/77/23 
f 31/68/8 28/69/7 37/70/15 40/71/17 58/72/22 
f 28/73/7 27/74/9 38/47/12 37/46/15 
f 27/75/9 52/76/20 59/77/23 39/78/16 38/79/12 
f 52/76/20 31/68/8 58/72/22 59/77/23 
f 41/68/8 30/69/7 43/70/15 46/71/14 60/72/22 
f 30/73/7 21/74/10 44/47/18 43/46/15 
f 21/75/10 55/76/21 61/77/24 45/78/19 44/79/18 
f 55/76/21 41/68/8 60/72/22 61/77/24 
f 35/48/13 57/77/23 56/72/22 36/49/14 
f 39/48/16 59/77/23 58/72/22 40/49/17 
f 45/48/19 61/77/24 60/72/22 46/49/14 
s 16
f 3/3/3 50/80/3 1/1/1 
s off
f 51/59/20 32/45/6 50/57/3 3/58/3 
s 16
f 50/80/3 49/81/3 1/1/1 
f 49/81/3 54/82/3 62/83/25 1/1/1 
s off
f 52/60/20 42/53/6 54/62/3 49/56/3 
s 16
f 54/82/3 53/84/3 62/83/25 
f 53/84/3 47/85/3 62/83/25 
s off
f 55/63/21 48/55/5 47/54/3 53/61/3 
s 16
f 47/85/3 4/86/4 62/83/25 
s off
f 48/55/5 20/65/5 5/5/5 4/4/4 
f 10/11/8 3/58/3 2/8/2 
s 2
f 22/23/5 12/87/6 15/16/6 18/19/5 
f 12/87/6 11/31/6 15/16/6 
f 11/31/6 28/30/7 15/16/6 
f 16/17/9 9/36/7 17/18/6 
f 25/26/6 24/25/6 63/88/5 
f 14/27/6 13/89/6 30/41/7 
f 13/89/6 25/26/6 63/88/5 30/41/7 
f 21/22/10 30/41/7 63/88/5 19/20/6 
s off
f 29/90/6 8/9/6 2/8/2 64/91/26 
s 8
f 65/92/27 62/93/27 4/94/28 7/95/28 
s 32
f 64/96/26 2/97/2 1/98/29 66/99/29 
s 4
f 66/100/29 1/101/29 62/102/27 65/103/27 
s off
f 17/104/6 29/105/6 67/106/5 68/107/5 
f 24/108/6 23/109/5 69/109/5 70/108/6 
f 63/110/5 24/108/6 70/108/6 71/111/6 
f 19/112/6 63/110/5 71/111/6 72/113/6 
f 6/114/6 19/112/6 72/113/6 73/115/6 
f 18/116/5 17/104/6 68/107/5 74/117/5 
f 23/109/5 18/116/5 74/117/5 69/109/5 
f 29/90/6 64/91/26 75/118/26 67/119/5 
f 7/7/6 6/6/6 73/120/6 76/121/30 
f 64/96/26 66/99/29 77/122/31 75/95/26 
f 65/92/27 7/95/28 76/96/30 78/99/32 
f 66/100/29 65/103/27 78/123/32 77/124/31 
s 16
f 79/125/33 80/126/34 81/127/35 82/128/35 
s off
f 83/129/36 84/130/5 67/119/5 75/118/26 
f 80/131/34 85/132/6 86/133/37 87/134/38 
s 2
f 88/14/37 89/15/38 90/12/37 91/13/37 
f 92/135/8 93/136/39 72/137/6 71/138/6 
f 94/139/6 70/140/6 69/141/5 95/142/5 
f 91/143/37 96/144/40 97/145/20 98/146/37 88/147/37 
f 89/34/38 94/35/6 95/32/5 90/33/37 
f 86/148/37 85/149/6 73/150/6 72/137/6 
f 71/138/6 70/140/6 94/139/6 
f 68/151/5 67/152/5 84/153/5 99/154/41 
f 96/144/40 91/143/37 100/155/38 
s off
f 92/156/8 98/157/37 101/158/38 102/159/7 
f 103/77/42 104/72/22 105/49/43 106/48/44 
f 107/77/23 108/72/45 109/49/14 110/48/46 
f 96/160/40 100/161/38 111/162/37 112/163/47 
f 113/77/48 114/72/49 115/49/14 116/48/50 
f 83/129/36 117/164/51 118/165/52 
f 119/166/35 82/167/35 102/159/7 101/158/38 
f 82/167/35 120/168/53 102/159/7 
f 121/169/35 122/170/9 112/163/47 123/171/51 
f 124/172/51 123/171/51 112/163/47 111/162/37 
f 125/173/54 126/174/9 118/165/52 
f 120/75/53 93/76/39 103/77/42 106/78/44 127/79/55 
f 93/76/39 92/68/8 104/72/22 103/77/42 
f 92/68/8 102/69/7 128/70/15 105/71/43 104/72/22 
f 102/73/7 120/74/53 127/47/55 128/46/15 
f 122/75/9 97/76/20 107/77/23 110/78/46 129/79/12 
f 97/76/20 96/68/40 108/72/45 107/77/23 
f 96/68/40 112/69/47 130/70/56 109/71/14 108/72/45 
f 112/73/47 122/74/9 129/47/12 130/46/56 
f 126/75/9 131/76/20 113/77/48 116/78/50 132/79/12 
f 131/76/20 99/68/41 114/72/49 113/77/48 
f 99/68/41 118/69/52 133/70/57 115/71/14 114/72/49 
f 118/73/52 126/74/9 132/47/12 133/46/57 
f 105/49/43 128/46/15 127/47/55 106/48/44 
f 109/49/14 130/46/56 129/47/12 110/48/46 
f 115/49/14 133/46/57 132/47/12 116/48/50 
s 16
f 82/128/35 119/175/35 121/176/35 79/125/33 
f 121/176/35 123/177/51 134/178/58 79/125/33 
f 123/177/51 124/179/51 125/180/54 134/178/58 
f 125/180/54 117/181/51 134/178/58 
s off
f 118/165/52 117/164/51 125/173/54 
s 16
f 117/181/51 83/182/36 134/178/58 
s off
f 118/165/52 99/183/41 84/130/5 83/129/36 
f 81/184/35 80/131/34 87/134/38 
s 2
f 94/139/6 89/185/38 92/135/8 71/138/6 
f 89/185/38 88/147/37 92/135/8 
f 88/147/37 98/146/37 92/135/8 
f 95/142/5 69/141/5 74/186/5 
f 91/143/37 90/187/37 100/155/38 
f 100/155/38 90/187/37 95/142/5 74/186/5 
s off
f 73/120/6 85/132/6 80/131/34 76/121/30 
s 2
f 72/137/6 93/136/39 86/148/37 
s off
f 86/133/37 93/188/39 120/168/53 87/134/38 
f 87/134/38 120/168/53 82/167/35 81/184/35 
f 98/157/37 97/189/20 122/170/9 101/158/38 
f 101/158/38 122/170/9 121/169/35 119/166/35 
s 2
f 68/151/5 99/154/41 131/190/20 
s off
f 100/161/38 131/191/20 126/174/9 111/162/37 
f 111/162/37 126/174/9 125/173/54 124/172/51 
s 2
f 131/190/20 100/155/38 74/186/5 68/151/5 
s off
f 75/95/26 77/122/31 134/93/58 83/94/36 
f 78/93/32 76/94/59 80/95/34 79/92/33 
f 77/124/31 78/123/32 79/192/33 134/193/58 
# 108 polygons - 34 triangles

