# 3ds Max Wavefront OBJ Exporter v0.99 - (c)2007 guruware
# File Created: 13.05.2022 14:56:49

mtllib ??.mtl

#
# object ??
#

v  -38.5633 79.6050 -9.7840
v  -43.5328 79.6050 -9.7840
v  -43.5328 82.9198 -13.3849
v  -38.5633 82.9198 -13.3849
v  -43.5328 36.5623 66.0645
v  -43.5328 36.5623 73.3533
v  -43.5328 60.7444 73.3533
v  -43.5328 60.7444 68.8463
v  -43.5328 60.7444 66.0645
v  -38.5633 46.3686 51.4870
v  -38.5633 53.7612 36.9094
v  -43.5328 53.7612 36.9094
v  -43.5328 46.3686 51.4870
v  -38.5633 60.7444 66.0645
v  -38.5633 36.5623 51.4870
v  -38.5633 36.5623 36.9094
v  -38.5633 36.5623 66.0645
v  -43.5328 36.5623 36.9094
v  -43.5328 36.5623 51.4870
v  -43.5328 69.3686 66.0645
v  -38.5633 60.7444 68.8463
v  -38.5633 69.3686 66.0645
v  -43.5328 45.5512 25.6283
v  -43.5328 40.8111 18.4689
v  -38.5633 40.8111 18.4689
v  -38.5633 45.5512 25.6283
v  -43.5328 77.1383 28.0800
v  -43.5328 79.1122 19.9877
v  -38.5633 77.1383 28.0800
v  -38.5633 79.1122 19.9877
v  -43.5328 59.4820 3.0659
v  -43.5328 60.7843 -4.1837
v  -38.5633 60.7843 -4.1837
v  -38.5633 59.4820 3.0659
v  -43.5328 52.6449 12.3970
v  -38.5633 52.6449 12.3970
v  -43.5328 81.7864 3.0659
v  -43.5328 82.9198 -7.9269
v  -43.5328 80.7027 12.3970
v  -38.5633 81.7864 3.0659
v  -38.5633 82.9198 -7.9269
v  -38.5633 80.7027 12.3970
v  -38.5633 60.7444 73.3533
v  -38.5633 36.5623 73.3533
v  -76.7276 -4.7304 36.9094
v  -76.7277 -4.7304 109.7972
v  -76.7277 33.1631 109.7972
v  -76.7277 33.1631 36.9094
v  -38.5633 -4.7303 36.9094
v  -38.5633 33.1631 36.9094
v  -38.5633 33.1631 51.4870
v  -43.5328 -4.7303 36.9094
v  -43.5328 -4.7303 109.7972
v  -43.5328 33.1631 109.7972
v  -76.7277 36.5623 109.7972
v  -43.5328 36.5623 109.7972
v  -43.5328 36.5623 95.2196
v  -76.7277 36.5623 36.9094
v  -43.5328 33.1631 36.9094
v  -84.0629 33.1631 109.7972
v  -84.0629 36.5623 109.7972
v  -84.0629 36.5623 36.9094
v  -84.0629 33.1631 36.9094
v  -38.5633 33.1631 66.0645
v  -38.5633 33.1631 109.7972
v  -38.5633 36.5623 109.7972
v  -38.5633 -4.7303 109.7972
v  -38.5633 36.5623 95.2196
v  -38.5633 33.1631 95.2196
v  -38.5633 36.5623 80.6421
v  -38.5633 33.1631 80.6421
v  -43.6618 79.6050 157.7901
v  -38.6923 79.6050 157.7901
v  -38.6923 82.9198 161.3911
v  -43.6618 82.9198 161.3911
v  -38.6923 60.7444 77.8299
v  -38.6923 60.7444 80.6117
v  -43.6618 46.3686 95.2035
v  -43.6618 53.7612 109.7825
v  -38.6923 53.7613 109.7825
v  -38.6923 46.3686 95.2035
v  -43.6618 60.7444 80.6117
v  -43.5328 36.5623 80.6421
v  -38.6922 69.3686 80.6117
v  -43.6618 60.7444 77.8299
v  -43.6618 69.3686 80.6117
v  -38.6923 45.5512 122.3779
v  -38.6923 40.8111 129.5372
v  -43.6618 40.8111 129.5372
v  -43.6618 45.5512 122.3779
v  -38.6923 77.1383 119.9261
v  -38.6923 79.1122 128.0184
v  -43.6618 77.1383 119.9261
v  -43.6618 79.1122 128.0184
v  -38.6923 59.4820 144.9402
v  -38.6923 60.7843 152.1899
v  -43.6618 60.7843 152.1899
v  -43.6618 59.4820 144.9402
v  -38.6923 52.6449 135.6092
v  -43.6618 52.6449 135.6092
v  -38.6923 81.7864 144.9402
v  -38.6923 82.9198 155.9330
v  -38.6923 80.7027 135.6092
v  -43.6618 81.7864 144.9402
v  -43.6618 82.9198 155.9330
v  -43.6618 80.7027 135.6092
# 106 vertices

vn -0.6519 -0.4015 -0.6433
vn 0.6519 -0.4015 -0.6433
vn -0.5459 0.3048 -0.7804
vn 0.5459 0.3048 -0.7804
vn -0.7071 0.7071 -0.0000
vn -0.7037 0.7104 -0.0101
vn -0.8661 0.4041 0.2942
vn -0.8051 0.2289 -0.5472
vn 0.8647 0.4963 -0.0773
vn 0.7983 0.4022 0.4482
vn -0.7983 0.4022 0.4483
vn -0.8647 0.4963 -0.0773
vn 0.8051 0.2289 -0.5472
vn 1.0000 0.0000 0.0000
vn 0.8190 -0.2491 -0.5169
vn -0.5127 0.0711 -0.8556
vn -0.5386 0.8323 -0.1309
vn 0.8661 0.4041 0.2942
vn 0.5386 0.8323 -0.1309
vn -0.8660 -0.4996 -0.0220
vn -0.5717 -0.7937 -0.2077
vn 0.5717 -0.7937 -0.2077
vn 0.8660 -0.4996 -0.0220
vn -0.6157 0.5901 0.5222
vn -0.7034 0.6932 0.1571
vn 0.6157 0.5901 0.5222
vn 0.7034 0.6932 0.1571
vn -0.7615 -0.5957 -0.2554
vn -0.6060 -0.5929 -0.5303
vn 0.6060 -0.5929 -0.5303
vn 0.7616 -0.5956 -0.2554
vn -0.7628 -0.4197 -0.4920
vn 0.7628 -0.4197 -0.4920
vn -0.7056 0.7044 0.0772
vn -0.6958 0.7173 0.0369
vn -0.6970 0.7078 0.1150
vn 0.7057 0.7043 0.0772
vn 0.6958 0.7173 0.0369
vn 0.6970 0.7078 0.1150
vn 0.7103 0.7038 0.0102
vn -0.5774 -0.5774 -0.5774
vn -0.5774 -0.5774 0.5774
vn -0.3015 -0.3015 0.9045
vn -0.3015 -0.3015 -0.9045
vn 0.5774 -0.5774 -0.5774
vn 0.7071 0.0000 -0.7071
vn 0.0000 -0.7071 -0.7071
vn 0.0000 -0.7071 0.7071
vn -0.0000 0.0000 1.0000
vn -0.0000 0.7071 0.7071
vn -0.5272 0.0558 0.8479
vn -0.7117 0.7024 -0.0000
vn -0.0000 0.7071 -0.7071
vn 0.0000 0.0000 -1.0000
vn -0.5774 -0.5774 0.5773
vn -0.5774 0.5773 0.5774
vn -0.5774 0.5773 -0.5774
vn -0.5773 -0.5774 -0.5774
vn 0.7071 0.0000 0.7071
vn 0.8270 -0.2531 0.5020
vn 0.5774 -0.5774 0.5774
vn 1.0000 0.0066 0.0000
vn 1.0000 0.0027 0.0000
vn 0.6519 -0.4015 0.6433
vn -0.6519 -0.4015 0.6433
vn 0.5459 0.3046 0.7805
vn -0.5459 0.3046 0.7805
vn 0.2268 0.9359 -0.2694
vn 0.8043 0.2313 0.5473
vn -0.8697 0.4880 0.0743
vn -0.7976 0.4157 -0.4370
vn 0.7863 0.4215 -0.4518
vn 0.8595 0.5049 0.0801
vn -0.8060 0.2266 0.5468
vn -0.7090 0.7052 -0.0000
vn 0.5386 0.8323 0.1309
vn -0.5627 -0.4866 -0.6683
vn -0.5386 0.8323 0.1309
vn 0.8587 -0.5123 0.0141
vn 0.5717 -0.7937 0.2077
vn -0.5717 -0.7937 0.2077
vn -0.8597 -0.5108 0.0041
vn 0.6193 0.6003 -0.5060
vn 0.7034 0.6932 -0.1571
vn -0.6193 0.6003 -0.5060
vn -0.7034 0.6932 -0.1571
vn 0.7615 -0.5957 0.2554
vn 0.6060 -0.5930 0.5303
vn -0.6060 -0.5930 0.5303
vn -0.7615 -0.5957 0.2554
vn 0.7628 -0.4197 0.4920
vn -0.7628 -0.4197 0.4920
vn 0.7056 0.7044 -0.0772
vn 0.6958 0.7173 -0.0369
vn 0.6970 0.7078 -0.1150
vn -0.7057 0.7043 -0.0772
vn -0.6957 0.7174 -0.0369
vn -0.6970 0.7078 -0.1150
# 98 vertex normals

vt 0.4722 0.9562 0.0000
vt 0.4841 0.9599 0.0000
vt 0.4783 0.9674 0.0000
vt 0.4715 0.9719 0.0000
vt 0.6497 0.8341 0.0000
vt 0.6577 0.8247 0.0000
vt 0.7041 0.8579 0.0000
vt 0.6969 0.8693 0.0000
vt 0.6900 0.8753 0.0000
vt 0.6402 0.8852 0.0000
vt 0.6101 0.9063 0.0000
vt 0.6011 0.8984 0.0000
vt 0.6370 0.8741 0.0000
vt 0.6864 0.8869 0.0000
vt 0.2808 0.4163 0.0000
vt 0.3154 0.4163 0.0000
vt 0.3154 0.4571 0.0000
vt 0.2808 0.4396 0.0000
vt 0.2462 0.4163 0.0000
vt 0.2462 0.4737 0.0000
vt 0.5986 0.8570 0.0000
vt 0.6276 0.8531 0.0000
vt 0.7043 0.8894 0.0000
vt 0.7091 0.8715 0.0000
vt 0.7072 0.8940 0.0000
vt 0.2396 0.4737 0.0000
vt 0.2462 0.4941 0.0000
vt 0.5705 0.8769 0.0000
vt 0.5526 0.8683 0.0000
vt 0.5488 0.8603 0.0000
vt 0.5683 0.8651 0.0000
vt 0.5752 0.9532 0.0000
vt 0.5567 0.9592 0.0000
vt 0.5821 0.9609 0.0000
vt 0.5607 0.9705 0.0000
vt 0.3422 0.4376 0.0000
vt 0.3592 0.4264 0.0000
vt 0.3556 0.5173 0.0000
vt 0.3364 0.5126 0.0000
vt 0.5164 0.9126 0.0000
vt 0.5018 0.9177 0.0000
vt 0.4933 0.9113 0.0000
vt 0.5093 0.9022 0.0000
vt 0.5383 0.8955 0.0000
vt 0.5295 0.8868 0.0000
vt 0.5941 0.8470 0.0000
vt 0.5157 0.9667 0.0000
vt 0.4892 0.9687 0.0000
vt 0.5384 0.9635 0.0000
vt 0.5166 0.9787 0.0000
vt 0.4874 0.9800 0.0000
vt 0.5407 0.9752 0.0000
vt 0.3958 0.4707 0.0000
vt 0.4130 0.4738 0.0000
vt 0.4218 0.5263 0.0000
vt 0.3958 0.5236 0.0000
vt 0.3736 0.4545 0.0000
vt 0.3736 0.5210 0.0000
vt 0.4263 0.5184 0.0000
vt 0.4348 0.5263 0.0000
vt 0.7129 0.8644 0.0000
vt 0.2289 0.4163 0.0000
vt 0.2289 0.4737 0.0000
vt 0.7774 0.7474 0.0000
vt 0.9504 0.7474 0.0000
vt 0.9504 0.8373 0.0000
vt 0.7774 0.8373 0.0000
vt 0.6444 0.3062 0.0000
vt 0.6444 0.3961 0.0000
vt 0.6098 0.3961 0.0000
vt 0.6444 0.2156 0.0000
vt 0.6444 0.2944 0.0000
vt 0.4715 0.2944 0.0000
vt 0.4715 0.2156 0.0000
vt 0.3962 0.6454 0.0000
vt 0.4709 0.6703 0.0000
vt 0.4425 0.7556 0.0000
vt 0.3678 0.7307 0.0000
vt 0.9212 0.8801 0.0000
vt 0.9280 0.9585 0.0000
vt 0.8936 0.9616 0.0000
vt 0.1671 0.6763 0.0000
vt 0.0915 0.6541 0.0000
vt 0.0938 0.6463 0.0000
vt 0.1694 0.6686 0.0000
vt 0.3512 0.7254 0.0000
vt 0.3487 0.7330 0.0000
vt 0.1837 0.6813 0.0000
vt 0.1861 0.6736 0.0000
vt 0.5752 0.4042 0.0000
vt 0.5580 0.4042 0.0000
vt 0.5752 0.3961 0.0000
vt 0.4537 0.7594 0.0000
vt 0.4512 0.7670 0.0000
vt 0.4400 0.7633 0.0000
vt 0.0825 0.6430 0.0000
vt 0.1078 0.5567 0.0000
vt 0.1192 0.5601 0.0000
vt 0.7489 0.8951 0.0000
vt 0.7474 0.8778 0.0000
vt 0.9197 0.8627 0.0000
vt 0.1913 0.6570 0.0000
vt 0.3564 0.7087 0.0000
vt 0.3652 0.7384 0.0000
vt 0.4715 0.3062 0.0000
vt 0.4821 0.6740 0.0000
vt 0.0802 0.6507 0.0000
vt 0.1947 0.5823 0.0000
vt 0.5061 0.4042 0.0000
vt 0.4715 0.4042 0.0000
vt 0.4715 0.3961 0.0000
vt 0.5061 0.3961 0.0000
vt 0.5407 0.4042 0.0000
vt 0.5407 0.3961 0.0000
vt 0.6444 0.4042 0.0000
vt 0.6098 0.4042 0.0000
vt 0.7224 0.6130 0.0000
vt 0.7146 0.6033 0.0000
vt 0.7289 0.5969 0.0000
vt 0.7272 0.6048 0.0000
vt 0.2116 0.4163 0.0000
vt 0.2183 0.4737 0.0000
vt 0.2117 0.4737 0.0000
vt 0.6981 0.7892 0.0000
vt 0.7083 0.7471 0.0000
vt 0.7191 0.7525 0.0000
vt 0.7097 0.7884 0.0000
vt 0.7161 0.8391 0.0000
vt 0.7260 0.8320 0.0000
vt 0.6752 0.7874 0.0000
vt 0.6688 0.7594 0.0000
vt 0.6642 0.8141 0.0000
vt 0.1771 0.4396 0.0000
vt 0.1425 0.4571 0.0000
vt 0.1424 0.4163 0.0000
vt 0.1770 0.4163 0.0000
vt 0.2117 0.4941 0.0000
vt 0.7183 0.8584 0.0000
vt 0.7125 0.8475 0.0000
vt 0.7339 0.8483 0.0000
vt 0.7392 0.8497 0.0000
vt 0.6643 0.7259 0.0000
vt 0.6529 0.7092 0.0000
vt 0.6617 0.7099 0.0000
vt 0.6761 0.7234 0.0000
vt 0.1184 0.5126 0.0000
vt 0.0992 0.5173 0.0000
vt 0.0956 0.4264 0.0000
vt 0.1126 0.4376 0.0000
vt 0.7490 0.7004 0.0000
vt 0.7479 0.6810 0.0000
vt 0.7600 0.6806 0.0000
vt 0.7587 0.7039 0.0000
vt 0.6778 0.6574 0.0000
vt 0.6805 0.6393 0.0000
vt 0.6895 0.6449 0.0000
vt 0.6900 0.6604 0.0000
vt 0.6708 0.6818 0.0000
vt 0.6820 0.6869 0.0000
vt 0.6577 0.7594 0.0000
vt 0.0590 0.5236 0.0000
vt 0.0330 0.5263 0.0000
vt 0.0418 0.4738 0.0000
vt 0.0590 0.4707 0.0000
vt 0.0812 0.5210 0.0000
vt 0.0812 0.4544 0.0000
vt 0.7402 0.6399 0.0000
vt 0.7324 0.6145 0.0000
vt 0.7423 0.6087 0.0000
vt 0.7517 0.6365 0.0000
vt 0.7454 0.6623 0.0000
vt 0.7572 0.6602 0.0000
vt 0.0200 0.5263 0.0000
vt 0.0285 0.5184 0.0000
vt 0.7902 0.9706 0.0000
vt 0.7557 0.9736 0.0000
vt 0.8246 0.9676 0.0000
vt 0.8591 0.9646 0.0000
vt 0.8419 0.9661 0.0000
# 179 texture coords

o ??
g ??
usemtl 01___Default
s off
f 1/1/1 2/2/2 3/3/3 4/4/4 
f 5/5/5 6/6/5 7/7/6 8/8/7 9/9/8 
s 32
f 10/10/9 11/11/10 12/12/11 13/13/12 
f 14/14/13 10/10/9 13/13/12 9/9/8 
s off
f 15/15/14 16/16/15 11/17/10 10/18/9 
f 17/19/14 15/15/14 10/18/9 14/20/13 
f 13/13/12 12/12/11 18/21/16 19/22/5 
f 9/9/8 13/13/12 19/22/5 5/5/5 
f 9/9/8 8/8/7 20/23/17 
f 8/8/7 21/24/18 22/25/19 20/23/17 
f 21/26/18 14/20/13 22/27/19 
f 14/14/13 9/9/8 20/23/17 22/25/19 
f 23/28/20 24/29/21 25/30/22 26/31/23 
f 27/32/24 28/33/25 24/29/21 23/28/20 
f 29/34/26 30/35/27 28/33/25 27/32/24 
f 26/36/23 25/37/22 30/38/27 29/39/26 
f 31/40/28 32/41/29 33/42/30 34/43/31 
f 35/44/32 31/40/28 34/43/31 36/45/33 
f 26/31/23 16/46/15 18/21/16 23/28/20 
f 37/47/34 38/48/35 32/41/29 31/40/28 
f 39/49/36 37/47/34 31/40/28 35/44/32 
f 23/28/20 18/21/16 12/12/11 27/32/24 
f 40/50/37 41/51/38 38/48/35 37/47/34 
f 42/52/39 40/50/37 37/47/34 39/49/36 
f 27/32/24 12/12/11 11/11/10 29/34/26 
f 34/53/31 33/54/30 41/55/38 40/56/37 
f 36/57/33 34/53/31 40/56/37 42/58/39 
f 29/39/26 11/17/10 16/16/15 26/36/23 
f 24/29/21 35/44/32 36/45/33 25/30/22 
f 28/33/25 39/49/36 35/44/32 24/29/21 
f 30/35/27 42/52/39 39/49/36 28/33/25 
f 25/37/22 36/57/33 42/58/39 30/38/27 
f 33/42/30 32/41/29 2/2/2 1/1/1 
f 32/41/29 38/48/35 3/3/3 2/2/2 
f 38/48/35 41/51/38 4/4/4 3/3/3 
f 41/55/38 33/54/30 1/59/1 4/60/4 
s 32
f 43/61/40 21/24/18 8/8/7 7/7/6 
s off
f 44/62/14 17/19/14 14/20/13 21/26/18 43/63/40 
s 2
f 45/64/41 46/65/42 47/66/43 48/67/44 
s 4
f 49/68/45 50/69/46 51/70/14 
s 8
f 45/71/41 52/72/47 53/73/48 46/74/42 
s 16
f 46/75/42 53/76/48 54/77/49 47/78/43 
s 32
f 55/79/50 56/80/51 57/81/52 
s 64
f 58/82/53 18/83/16 59/84/54 48/85/44 
s 2
f 60/86/55 61/87/56 62/88/57 63/89/58 
s 4
f 17/90/14 44/91/14 64/92/14 
s 16
f 65/93/59 66/94/60 56/95/51 54/77/49 
s 64
f 50/96/46 49/97/45 52/98/47 59/84/54 
s off
f 55/79/50 58/99/53 62/100/57 61/101/56 
f 58/82/53 48/85/44 63/89/58 62/88/57 
f 48/102/44 47/103/43 60/86/55 63/89/58 
f 47/78/43 55/104/50 61/87/56 60/86/55 
s 8
f 52/72/47 49/68/45 67/105/61 53/73/48 
s 16
f 53/76/48 67/106/61 65/93/59 54/77/49 
s 64
f 18/83/16 16/107/15 50/96/46 59/84/54 
s 16
f 56/95/51 55/104/50 47/78/43 54/77/49 
s 64
f 52/98/47 45/108/41 48/85/44 59/84/54 
s 4
f 68/109/62 66/110/60 65/111/59 69/112/14 
f 70/113/63 68/109/62 69/112/14 71/114/14 
f 51/70/14 50/69/46 16/115/15 15/116/14 
f 64/92/14 51/70/14 15/116/14 17/90/14 
s off
f 72/117/64 73/118/65 74/119/66 75/120/67 
f 70/121/63 44/62/14 43/63/40 76/122/68 77/123/69 
s 32
f 78/124/70 79/125/71 80/126/72 81/127/73 
f 82/128/74 78/124/70 81/127/73 77/129/69 
s off
f 57/130/52 56/131/51 79/125/71 78/124/70 
f 83/132/75 57/130/52 78/124/70 82/128/74 
f 81/133/73 80/134/72 66/135/60 68/136/62 
f 77/123/69 81/133/73 68/136/62 70/121/63 
f 77/123/69 76/122/68 84/137/76 
f 76/138/68 85/139/77 86/140/78 84/141/76 
f 85/139/77 82/128/74 86/140/78 
f 82/128/74 77/129/69 84/141/76 86/140/78 
f 87/142/79 88/143/80 89/144/81 90/145/82 
f 91/146/83 92/147/84 88/148/80 87/149/79 
f 93/150/85 94/151/86 92/152/84 91/153/83 
f 90/145/82 89/144/81 94/151/86 93/150/85 
f 95/154/87 96/155/88 97/156/89 98/157/90 
f 99/158/91 95/154/87 98/157/90 100/159/92 
f 90/145/82 56/131/51 66/160/60 87/142/79 
f 101/161/93 102/162/94 96/163/88 95/164/87 
f 103/165/95 101/161/93 95/164/87 99/166/91 
f 87/149/79 66/135/60 80/134/72 91/146/83 
f 104/167/96 105/168/97 102/169/94 101/170/93 
f 106/171/98 104/167/96 101/170/93 103/172/95 
f 91/153/83 80/126/72 79/125/71 93/150/85 
f 98/157/90 97/156/89 105/168/97 104/167/96 
f 100/159/92 98/157/90 104/167/96 106/171/98 
f 93/150/85 79/125/71 56/131/51 90/145/82 
f 88/143/80 99/158/91 100/159/92 89/144/81 
f 92/147/84 103/165/95 99/166/91 88/148/80 
f 94/151/86 106/171/98 103/172/95 92/152/84 
f 89/144/81 100/159/92 106/171/98 94/151/86 
f 97/156/89 96/155/88 73/118/65 72/117/64 
f 96/163/88 102/162/94 74/173/66 73/174/65 
f 102/169/94 105/168/97 75/120/67 74/119/66 
f 105/168/97 97/156/89 72/117/64 75/120/67 
s 32
f 7/7/6 85/139/77 76/138/68 43/61/40 
s off
f 6/6/5 83/132/75 82/128/74 85/139/77 7/7/6 
s 32
f 19/175/5 18/176/16 58/99/53 
f 5/177/5 19/175/5 58/99/53 
f 57/81/52 83/178/75 55/79/50 
f 83/178/75 6/179/5 55/79/50 
f 6/179/5 5/177/5 58/99/53 55/79/50 
s 4
f 69/112/14 65/111/59 67/105/61 
f 71/114/14 69/112/14 67/105/61 
f 51/70/14 64/92/14 49/68/45 
f 64/92/14 71/114/14 67/105/61 49/68/45 
f 44/91/14 70/113/63 71/114/14 64/92/14 
# 95 polygons - 14 triangles

