# 3ds Max Wavefront OBJ Exporter v0.99 - (c)2007 guruware
# File Created: 13.05.2022 14:55:21

mtllib ??.mtl

#
# object ??
#

v  -435.3409 51.3018 -177.2645
v  -435.3409 51.3018 -106.4320
v  -350.8919 51.3018 -106.4320
v  -350.8919 51.3018 -177.2645
v  -435.3409 50.0503 -176.2592
v  -435.3409 50.0503 -107.4259
v  -435.3409 18.9007 -107.4358
v  -350.8919 18.9007 -107.4358
v  -350.8919 18.9663 -105.8026
v  -435.3409 18.9663 -105.8026
v  -350.8919 50.0503 -107.4259
v  -350.8919 50.0503 -176.2592
v  -350.8919 11.0549 -175.9415
v  -435.3409 11.0549 -175.9415
v  -435.3409 10.9894 -177.8720
v  -350.8919 10.9894 -177.8720
v  -338.0905 50.0503 -120.3954
v  -338.0905 50.0503 -163.3407
v  -450.0665 50.0503 -163.3407
v  -450.0665 50.0503 -120.3954
v  -338.0905 43.5062 -163.3407
v  -338.0905 43.5062 -120.3954
v  -450.0665 43.5062 -120.3954
v  -450.0665 43.5062 -163.3407
v  -450.0665 43.5062 -107.5118
v  -338.0905 43.5062 -107.5118
v  -338.0905 50.0503 -107.5118
v  -450.0665 50.0503 -107.5118
v  -324.2753 43.5062 -120.3954
v  -324.2753 43.5062 -163.3407
v  -324.2753 50.0503 -163.3407
v  -324.2753 50.0503 -120.3954
v  -338.0905 43.5062 -176.2243
v  -450.0665 43.5062 -176.2243
v  -450.0665 50.0503 -176.2243
v  -338.0905 50.0503 -176.2243
v  -463.8817 43.5062 -163.3407
v  -463.8817 43.5062 -120.3954
v  -463.8817 50.0503 -120.3954
v  -463.8817 50.0503 -163.3407
v  -324.2753 43.5062 -107.5118
v  -324.2753 50.0503 -107.5118
v  -463.8817 50.0503 -107.5118
v  -463.8817 43.5062 -107.5118
v  -463.8817 43.5062 -176.2243
v  -463.8817 50.0503 -176.2243
v  -324.2753 50.0503 -176.2243
v  -324.2753 43.5062 -176.2243
v  -325.5268 -5.9639 -119.1439
v  -325.5268 -5.9639 -108.7634
v  -336.8389 -5.9639 -108.7634
v  -336.8389 -5.9639 -119.1439
v  -336.8389 -5.9639 -164.5923
v  -336.8389 -5.9639 -174.9728
v  -325.5268 -5.9639 -174.9728
v  -325.5268 -5.9639 -164.5923
v  -462.6301 -5.9639 -164.5923
v  -462.6301 -5.9639 -174.9728
v  -451.3180 -5.9639 -174.9728
v  -451.3180 -5.9639 -164.5923
v  -451.3180 -5.9639 -119.1439
v  -451.3180 -5.9639 -108.7634
v  -462.6301 -5.9639 -108.7634
v  -462.6301 -5.9639 -119.1439
v  -336.8389 43.5062 -108.7634
v  -325.5268 43.5062 -108.7634
v  -336.8389 43.5062 -119.1439
v  -325.5268 43.5062 -119.1439
v  -325.5268 43.5062 -164.5923
v  -325.5268 43.5062 -174.9728
v  -336.8389 43.5062 -164.5923
v  -336.8389 43.5062 -174.9728
v  -451.3180 43.5062 -174.9728
v  -462.6301 43.5062 -174.9728
v  -451.3180 43.5062 -164.5923
v  -462.6301 43.5062 -164.5923
v  -462.6301 43.5062 -119.1439
v  -462.6301 43.5062 -108.7634
v  -451.3180 43.5062 -119.1439
v  -451.3180 43.5062 -108.7634
# 80 vertices

vn -0.5781 0.5813 -0.5726
vn -0.5784 0.5825 0.5711
vn 0.5784 0.5824 0.5712
vn 0.5781 0.5813 -0.5726
vn -0.9488 0.0026 0.3157
vn -0.9487 0.0001 -0.3162
vn -0.5753 -0.5898 -0.5668
vn 0.5753 -0.5898 -0.5668
vn 0.5784 -0.5594 0.5937
vn -0.5784 -0.5593 0.5938
vn 0.9487 0.0001 -0.3162
vn 0.9488 0.0026 0.3157
vn 0.5787 -0.5644 0.5887
vn -0.5787 -0.5644 0.5887
vn -0.5748 -0.5840 -0.5731
vn 0.5748 -0.5840 -0.5731
vn 0.0000 1.0000 -0.0000
vn 0.0000 -1.0000 -0.0000
vn 0.0000 -0.7071 0.7071
vn 0.0000 0.7071 0.7071
vn 0.7071 -0.7071 -0.0000
vn 0.7071 0.7071 -0.0000
vn 0.0000 -0.7071 -0.7071
vn 0.0000 0.7071 -0.7071
vn -0.7071 -0.7071 -0.0000
vn -0.7071 0.7071 -0.0000
vn 0.5774 -0.5774 0.5774
vn 0.5774 0.5774 0.5774
vn -0.5774 0.5774 0.5774
vn -0.5774 -0.5774 0.5774
vn -0.5774 -0.5774 -0.5774
vn -0.5774 0.5774 -0.5774
vn 0.5774 0.5774 -0.5774
vn 0.5774 -0.5774 -0.5774
vn -0.3015 -0.9045 0.3015
vn 0.3015 -0.9045 0.3015
vn -0.3015 -0.9045 -0.3015
vn 0.3015 -0.9045 -0.3015
# 38 vertex normals

vt 0.2278 0.3776 0.0000
vt 0.4572 0.3711 0.0000
vt 0.4651 0.6474 0.0000
vt 0.2357 0.6540 0.0000
vt 0.2273 0.3740 0.0000
vt 0.4574 0.3674 0.0000
vt 0.5634 0.3665 0.0000
vt 0.5714 0.6460 0.0000
vt 0.5690 0.6437 0.0000
vt 0.5611 0.3688 0.0000
vt 0.4656 0.6511 0.0000
vt 0.2355 0.6577 0.0000
vt 0.1035 0.6596 0.0000
vt 0.0954 0.3796 0.0000
vt 0.0980 0.3822 0.0000
vt 0.1059 0.6569 0.0000
vt 0.7855 0.9800 0.0000
vt 0.5106 0.9800 0.0000
vt 0.5106 0.8530 0.0000
vt 0.7855 0.8530 0.0000
vt 0.8377 0.8078 0.0000
vt 0.5627 0.8078 0.0000
vt 0.5627 0.7064 0.0000
vt 0.8377 0.7064 0.0000
vt 0.4523 0.0852 0.0000
vt 0.4586 0.2249 0.0000
vt 0.0944 0.2412 0.0000
vt 0.0881 0.1015 0.0000
vt 0.4296 0.7978 0.0000
vt 0.4296 0.9376 0.0000
vt 0.0650 0.9376 0.0000
vt 0.0650 0.7978 0.0000
vt 0.0853 0.0384 0.0000
vt 0.4495 0.0220 0.0000
vt 0.4505 0.0433 0.0000
vt 0.0862 0.0596 0.0000
vt 0.5186 0.0822 0.0000
vt 0.5248 0.2219 0.0000
vt 0.5035 0.2229 0.0000
vt 0.4973 0.0832 0.0000
vt 0.4614 0.2881 0.0000
vt 0.0972 0.3044 0.0000
vt 0.0963 0.2831 0.0000
vt 0.4605 0.2668 0.0000
vt 0.0281 0.2442 0.0000
vt 0.0219 0.1045 0.0000
vt 0.0432 0.1036 0.0000
vt 0.0494 0.2433 0.0000
vt 0.4746 0.7978 0.0000
vt 0.4746 0.9376 0.0000
vt 0.0200 0.9376 0.0000
vt 0.0200 0.7978 0.0000
vt 0.4944 0.0200 0.0000
vt 0.4954 0.0413 0.0000
vt 0.0413 0.0617 0.0000
vt 0.0403 0.0404 0.0000
vt 0.0523 0.3065 0.0000
vt 0.0513 0.2852 0.0000
vt 0.5054 0.2648 0.0000
vt 0.5064 0.2861 0.0000
vt 0.4296 0.9796 0.0000
vt 0.0650 0.9796 0.0000
vt 0.0650 0.7558 0.0000
vt 0.4296 0.7558 0.0000
vt 0.5267 0.2638 0.0000
vt 0.5167 0.0403 0.0000
vt 0.0200 0.0626 0.0000
vt 0.0300 0.2861 0.0000
vt 0.7789 0.5049 0.0000
vt 0.7551 0.5288 0.0000
vt 0.7281 0.5038 0.0000
vt 0.7529 0.4789 0.0000
vt 0.4746 0.9796 0.0000
vt 0.4337 0.9755 0.0000
vt 0.4705 0.9755 0.0000
vt 0.4337 0.9417 0.0000
vt 0.4705 0.9417 0.0000
vt 0.4746 0.7558 0.0000
vt 0.4705 0.7937 0.0000
vt 0.4705 0.7599 0.0000
vt 0.4337 0.7937 0.0000
vt 0.4337 0.7599 0.0000
vt 0.0200 0.7558 0.0000
vt 0.0609 0.7599 0.0000
vt 0.0241 0.7599 0.0000
vt 0.0609 0.7937 0.0000
vt 0.0241 0.7937 0.0000
vt 0.0200 0.9796 0.0000
vt 0.0241 0.9417 0.0000
vt 0.0241 0.9755 0.0000
vt 0.0609 0.9417 0.0000
vt 0.0609 0.9755 0.0000
vt 0.6355 0.6333 0.0000
vt 0.6113 0.6055 0.0000
vt 0.5890 0.5801 0.0000
vt 0.7037 0.4804 0.0000
vt 0.6820 0.6864 0.0000
vt 0.6578 0.6587 0.0000
vt 0.7790 0.5527 0.0000
vt 0.8033 0.5804 0.0000
# 100 texture coords

o ??
g ??
usemtl 03___Default
s 1
f 1/1/1 2/2/2 3/3/3 4/4/4 
s off
f 5/5/5 6/6/6 2/2/2 1/1/1 
f 7/7/7 8/8/8 9/9/9 10/10/10 
f 11/11/11 12/12/12 4/4/4 3/3/3 
f 13/13/13 14/14/14 15/15/15 16/16/16 
f 12/17/12 5/18/5 14/19/14 13/20/13 
f 5/5/5 1/1/1 15/15/15 14/14/14 
f 1/1/1 4/4/4 16/16/16 15/15/15 
f 4/4/4 12/12/12 13/13/13 16/16/16 
f 6/21/6 11/22/11 8/23/8 7/24/7 
f 11/11/11 3/3/3 9/9/9 8/8/8 
f 3/3/3 2/2/2 10/10/10 9/9/9 
f 2/2/2 6/6/6 7/7/7 10/10/10 
s 2
f 17/25/17 18/26/17 19/27/17 20/28/17 
s 4
f 21/29/18 22/30/18 23/31/18 24/32/18 
s 8
f 25/33/19 26/34/19 27/35/20 28/36/20 
s 16
f 29/37/21 30/38/21 31/39/22 32/40/22 
s 32
f 33/41/23 34/42/23 35/43/24 36/44/24 
s 64
f 37/45/25 38/46/25 39/47/26 40/48/26 
s 2
f 32/40/22 31/39/22 18/26/17 17/25/17 
f 40/48/26 39/47/26 20/28/17 19/27/17 
s 4
f 30/49/21 29/50/21 22/30/18 21/29/18 
f 38/51/25 37/52/25 24/32/18 23/31/18 
s 8
f 26/34/19 41/53/27 42/54/28 27/35/20 
f 28/36/20 43/55/29 44/56/30 25/33/19 
s 32
f 34/42/23 45/57/31 46/58/32 35/43/24 
f 36/44/24 47/59/33 48/60/34 33/41/23 
s 2
f 18/26/17 36/44/24 35/43/24 19/27/17 
f 20/28/17 28/36/20 27/35/20 17/25/17 
s 4
f 22/30/18 26/61/19 25/62/19 23/31/18 
f 24/32/18 34/63/23 33/64/23 21/29/18 
s 16
f 30/38/21 48/65/34 47/59/33 31/39/22 
f 32/40/22 42/54/28 41/66/27 29/37/21 
s 64
f 38/46/25 44/67/30 43/55/29 39/47/26 
f 40/48/26 46/58/32 45/68/31 37/45/25 
s 2
f 31/39/22 47/59/33 36/44/24 18/26/17 
f 17/25/17 27/35/20 42/54/28 32/40/22 
f 39/47/26 43/55/29 28/36/20 20/28/17 
f 19/27/17 35/43/24 46/58/32 40/48/26 
s 4
f 49/69/34 50/70/27 51/71/30 52/72/31 
f 53/71/30 54/72/31 55/69/34 56/70/27 
f 57/71/30 58/72/31 59/69/34 60/70/27 
f 61/69/34 62/70/27 63/71/30 64/72/31 
s off
f 41/73/27 26/61/19 65/74/35 66/75/36 
f 26/61/19 22/30/18 67/76/37 65/74/35 
f 22/30/18 29/50/21 68/77/38 67/76/37 
f 29/50/21 41/73/27 66/75/36 68/77/38 
f 48/78/34 30/49/21 69/79/36 70/80/38 
f 30/49/21 21/29/18 71/81/35 69/79/36 
f 21/29/18 33/64/23 72/82/37 71/81/35 
f 33/64/23 48/78/34 70/80/38 72/82/37 
f 45/83/31 34/63/23 73/84/38 74/85/37 
f 34/63/23 24/32/18 75/86/36 73/84/38 
f 24/32/18 37/52/25 76/87/35 75/86/36 
f 37/52/25 45/83/31 74/85/37 76/87/35 
f 44/88/30 38/51/25 77/89/37 78/90/35 
f 38/51/25 23/31/18 79/91/38 77/89/37 
f 23/31/18 25/62/19 80/92/36 79/91/38 
f 25/62/19 44/88/30 78/90/35 80/92/36 
f 66/93/36 65/94/35 51/71/30 50/70/27 
f 65/94/35 67/95/37 52/96/31 51/71/30 
f 67/97/37 68/98/38 49/99/34 52/100/31 
f 68/98/38 66/93/36 50/70/27 49/99/34 
f 70/98/38 69/93/36 56/70/27 55/99/34 
f 69/93/36 71/94/35 53/71/30 56/70/27 
f 71/94/35 72/95/37 54/96/31 53/71/30 
f 72/97/37 70/98/38 55/99/34 54/100/31 
f 74/97/37 73/98/38 59/99/34 58/100/31 
f 73/98/38 75/93/36 60/70/27 59/99/34 
f 75/93/36 76/94/35 57/71/30 60/70/27 
f 76/94/35 74/95/37 58/96/31 57/71/30 
f 78/94/35 77/95/37 64/96/31 63/71/30 
f 77/97/37 79/98/38 61/99/34 64/100/31 
f 79/98/38 80/93/36 62/70/27 61/99/34 
f 80/93/36 78/94/35 63/71/30 62/70/27 
# 75 polygons

