# 3ds Max Wavefront OBJ Exporter v0.99 - (c)2007 guruware
# File Created: 13.05.2022 14:55:00

mtllib ??.mtl

#
# object ??
#

v  -127.0735 -13.7209 -61.2033
v  -127.0735 -13.7209 -122.7211
v  -52.6819 -13.7209 -122.7210
v  -52.6819 -13.7209 -61.2033
v  -55.2018 5.6764 -61.2033
v  -55.2018 5.6764 -122.7210
v  -127.0735 5.6764 -122.7210
v  -127.0735 5.6764 -61.2033
v  -127.0735 -7.7912 -28.3094
v  -52.6819 -7.7912 -28.3094
v  -55.2018 5.6764 -28.3094
v  -127.0735 5.6764 -28.3094
v  -47.7629 -7.7912 -61.2033
v  -47.7630 -7.7912 -122.7210
v  -47.7630 5.6764 -122.7210
v  -47.7629 5.6764 -61.2033
v  -52.6819 8.3186 -171.9635
v  -127.0735 8.3186 -171.9635
v  -127.0735 11.4923 -173.2361
v  -52.6819 11.4923 -173.2361
v  -127.0735 11.7607 -161.0645
v  -127.0735 15.4570 -166.5140
v  -127.0735 12.3781 -166.5140
v  -127.0735 -0.4817 -161.0644
v  -127.0735 3.3694 -166.5140
v  -52.6819 3.3694 -166.5140
v  -52.6819 -0.4817 -161.0644
v  -55.2018 11.7607 -161.0645
v  -55.2018 15.4570 -166.5140
v  -47.7384 5.4480 -161.0645
v  -47.7384 9.2992 -166.5140
v  -47.7288 12.3781 -166.5140
v  -47.7192 11.7607 -161.0645
v  -127.0735 -7.7912 -122.7211
v  -127.0735 -7.7912 -61.2033
v  -127.0735 5.4480 -161.0645
v  -127.0735 -7.7912 -155.6149
v  -127.0735 5.6764 -155.6149
v  -127.0735 14.6661 -171.9635
v  -127.0735 2.3889 -171.9635
v  -52.6819 2.3889 -171.9635
v  -52.6819 -13.7209 -155.6149
v  -127.0735 -13.7209 -155.6149
v  -55.2018 14.6661 -171.9635
v  -55.2018 5.6764 -155.6149
v  -47.7384 8.3186 -171.9635
v  -47.7288 11.4923 -173.2361
v  -47.7629 5.6764 -155.6149
v  -47.7629 -7.7912 -155.6149
v  -52.6819 29.6436 -122.7210
v  -52.6819 29.6436 -61.2033
v  -47.7629 29.6436 -61.2033
v  -47.7630 29.6436 -122.7211
v  -47.7629 -7.7912 -28.3094
v  -47.7629 5.6764 -28.3094
v  -52.6819 -13.7129 -61.2033
v  -52.6819 -13.7129 -122.7210
v  -47.7630 -13.7129 -122.7210
v  -47.7629 -13.7129 -61.2033
v  -55.2018 27.8448 -61.4825
v  -55.2018 27.8449 -122.4418
v  -47.7629 10.2746 -28.3094
v  -52.6819 10.2746 -28.3094
v  -127.0735 -20.3566 -144.8178
v  -127.0735 -20.3566 -155.6149
v  -52.6819 -20.3566 -155.6149
v  -52.6819 -20.3566 -144.8178
v  -52.6819 -20.3566 -39.1065
v  -52.6819 -20.3566 -28.3094
v  -127.0735 -20.3566 -28.3094
v  -127.0735 -20.3566 -39.1065
v  -55.2018 5.6764 -144.8178
v  -127.0735 5.6764 -144.8178
v  -127.0735 5.6764 -39.1065
v  -55.2018 5.6764 -39.1065
v  -47.7630 -7.7912 -144.8178
v  -47.7630 5.6764 -144.8178
v  -47.7629 5.6764 -39.1065
v  -47.7629 -7.7912 -39.1065
v  -127.0735 -7.7912 -39.1065
v  -127.0735 -7.7912 -144.8178
v  -52.6819 22.6136 -39.1065
v  -47.7629 22.6136 -39.1065
v  -47.7630 22.6136 -144.8178
v  -47.7630 16.4090 -150.2164
v  -52.6819 16.4090 -150.2163
v  -52.6819 22.6136 -144.8178
v  -52.6819 -20.3235 -144.8178
v  -52.6819 -20.3235 -155.6149
v  -47.7629 -20.3235 -155.6149
v  -47.7630 -20.3235 -144.8178
v  -47.7629 -20.3550 -39.1065
v  -47.7629 -20.3550 -28.3094
v  -52.6819 -20.3550 -28.3094
v  -52.6819 -20.3550 -39.1065
v  -55.2018 9.5987 -30.1082
v  -55.2018 21.0516 -40.1299
v  -55.2018 21.0524 -143.7918
v  -55.2018 14.1487 -149.7987
v  -47.7629 19.2837 -155.6149
v  -127.0735 -13.7209 -144.8178
v  -52.6819 -13.7209 -144.8178
v  -52.6819 -13.7209 -39.1065
v  -127.0735 -13.7209 -39.1065
v  -52.6819 -13.7129 -144.8178
v  -47.7630 -13.7129 -144.8178
v  -47.7629 -13.7129 -39.1065
v  -52.6819 -13.7129 -39.1065
v  -52.6819 35.9816 -171.9635
v  -52.6819 39.8640 -166.5140
v  -47.7192 39.8640 -166.5140
v  -47.7192 35.9816 -171.9635
v  -52.6819 39.7938 -161.0644
v  -47.7192 39.7938 -161.0644
v  -52.6819 35.8657 -155.0007
v  -47.7629 35.8657 -155.0007
v  -55.2018 18.4429 -157.8630
v  -55.2018 28.0822 -154.1720
v  -55.2018 28.0998 -161.0644
v  -47.7192 28.0998 -161.0644
v  -47.7629 28.0557 -152.2560
v  -47.7192 15.4570 -166.5140
v  -47.7192 28.1140 -166.5140
v  -47.7192 14.6661 -171.9635
v  -47.7192 28.1802 -175.4999
v  -52.6819 28.1802 -175.4999
v  -55.2018 28.1140 -166.5140
v  -55.2018 28.0185 -173.5982
v  -52.6819 28.0557 -152.2560
v  -52.6819 19.2837 -155.6149
v  -55.2018 34.6899 -156.4941
v  -55.2018 38.0019 -161.6067
v  -55.2018 38.0578 -165.9492
v  -55.2018 34.7977 -170.5252
v  -127.0735 -13.7209 -28.3094
v  -127.0735 9.2992 -166.5140
v  -127.0735 5.3538 -171.9635
v  -127.0735 8.3186 -175.0223
v  -52.6819 8.3186 -175.0223
v  -52.6819 5.3538 -176.4654
v  -127.0735 5.3538 -176.4654
v  -47.7384 3.3694 -166.5140
v  -47.7384 2.3889 -171.9635
v  -47.7384 5.3538 -171.9635
v  -47.7384 -0.4817 -161.0644
v  -47.7384 -13.7129 -155.6149
v  -47.7384 -13.7209 -155.6149
v  -52.6819 -13.7209 -28.3094
v  -52.6819 -13.7129 -28.3094
v  -47.7629 -13.7129 -155.6149
v  -47.7629 -13.7129 -28.3094
v  -47.7629 -13.7209 -155.6149
v  -47.7384 5.3538 -176.4654
v  -47.7384 8.3186 -175.0223
v  -127.0735 2.3889 -175.0223
v  -52.6819 2.3889 -175.0223
v  -47.7384 2.3889 -175.0223
v  -106.8826 4.0712 -151.0284
v  -106.8826 13.1634 -163.9289
v  -69.8982 13.1634 -163.9289
v  -69.8982 4.0712 -151.0284
v  -106.8826 7.1806 -147.6648
v  -69.8982 7.1806 -147.6648
v  -69.8982 16.2728 -160.2053
v  -106.8826 16.2728 -160.2053
v  -57.4391 6.9721 -96.6808
v  -54.0213 26.3555 -96.6808
v  -54.0213 26.3555 -73.4198
v  -57.4391 6.9721 -73.4198
v  -62.4737 7.8599 -96.6808
v  -62.4737 7.8598 -73.4198
v  -59.0559 27.2433 -73.4198
v  -59.0559 27.2433 -96.6808
v  -56.2887 6.7077 -119.7839
v  -53.4250 22.9485 -119.7839
v  -53.4250 22.9485 -100.2942
v  -56.2887 6.7077 -100.2942
v  -60.5071 7.4516 -119.7839
v  -60.5071 7.4515 -100.2942
v  -57.6434 23.6924 -100.2942
v  -57.6434 23.6924 -119.7839
v  -128.3645 7.1357 -102.2094
v  -127.8810 7.1357 -28.2798
v  -53.7426 7.1357 -28.2798
v  -53.7426 7.1357 -128.1469
v  -128.3645 6.2363 -102.2094
v  -127.8810 6.2363 -28.2798
v  -53.7426 6.2363 -28.2798
v  -53.7426 6.2363 -128.1469
# 189 vertices

vn -0.7071 -0.7071 -0.0000
vn 0.7071 -0.7071 0.0000
vn 0.7067 -0.7075 -0.0000
vn -0.7071 0.7071 0.0000
vn -0.7071 -0.0000 0.7071
vn 0.0000 0.0000 1.0000
vn -0.2927 0.3409 0.8934
vn -0.5774 0.5774 0.5774
vn 1.0000 0.0000 -0.0000
vn 1.0000 -0.0000 -0.0000
vn 0.0000 0.5603 -0.8283
vn -0.9452 0.1830 -0.2705
vn -0.6321 0.0000 -0.7748
vn 0.0000 0.0000 -1.0000
vn -0.6807 0.5516 0.4821
vn -0.6340 0.7536 0.1732
vn -1.0000 0.0000 -0.0000
vn -0.7756 -0.3935 -0.4936
vn -0.8052 -0.5789 -0.1285
vn 0.0000 -0.9762 -0.2169
vn 0.0000 -0.6234 -0.7819
vn -0.7356 0.5101 0.4458
vn -0.7983 0.5870 0.1349
vn 1.0000 -0.0018 -0.0013
vn 1.0000 -0.0020 -0.0006
vn 1.0000 -0.0031 -0.0009
vn 1.0000 -0.0014 0.0029
vn -0.8114 0.5336 0.2384
vn -0.6101 0.6226 -0.4900
vn -0.6877 -0.7231 0.0645
vn 0.0000 -0.9960 0.0889
vn -0.0000 -0.1940 -0.9810
vn -0.7535 -0.1275 -0.6450
vn -0.3063 0.4281 -0.8502
vn -0.6258 0.7121 0.3182
vn 0.9453 0.1819 -0.2709
vn 0.6323 -0.0014 -0.7747
vn 1.0000 0.0000 0.0040
vn 1.0000 0.0018 0.0073
vn -0.2993 0.9429 -0.1464
vn -0.2993 0.9429 0.1464
vn 0.6742 0.7298 0.1133
vn 0.6742 0.7298 -0.1133
vn 0.7071 0.0000 0.7071
vn 0.7071 -0.7071 -0.0000
vn -0.8722 0.4834 0.0750
vn -0.8722 0.4834 -0.0750
vn 0.6358 0.2715 0.7225
vn -0.2544 0.3859 0.8868
vn -0.5774 -0.5774 0.5774
vn -0.5774 -0.5774 -0.5774
vn 0.5773 -0.5774 -0.5773
vn 0.5774 -0.5773 0.5774
vn 0.5774 -0.5774 -0.5774
vn 0.5776 -0.5787 0.5757
vn -0.7071 0.7071 -0.0000
vn 1.0000 -0.0000 0.0000
vn -0.2986 0.7983 0.5230
vn 0.6513 0.6347 0.4158
vn 0.6511 0.6343 -0.4168
vn 0.8769 0.4726 -0.0873
vn -0.4214 0.8918 -0.1648
vn -0.2986 0.7976 -0.5241
vn 0.9045 -0.3015 0.3015
vn -0.5773 -0.5774 -0.5774
vn 0.5773 -0.5774 -0.5774
vn 0.5774 -0.5774 0.5774
vn -0.5773 -0.5774 0.5774
vn 0.3015 -0.3015 -0.9045
vn -0.8767 0.2666 0.4004
vn -0.8617 0.4245 0.2781
vn -0.8616 0.4243 -0.2788
vn -0.9702 0.2381 -0.0440
vn -0.5841 0.2843 0.7602
vn -0.9045 -0.3015 0.3015
vn -0.9045 -0.3015 -0.3015
vn 0.5773 -0.5771 0.5777
vn 0.9045 -0.3015 -0.3015
vn -0.2986 0.6065 -0.7369
vn -0.2992 0.9107 -0.2848
vn 0.6434 0.7306 -0.2284
vn 0.6530 0.4813 -0.5847
vn -0.2987 0.9134 0.2764
vn 0.6502 0.7269 0.2213
vn -0.2994 0.5902 0.7497
vn 0.6374 0.4754 0.6064
vn 0.2997 0.3342 0.8936
vn -0.8561 -0.0072 0.5168
vn 1.0000 0.0000 0.0025
vn 0.6356 -0.0107 0.7720
vn 1.0000 -0.0012 -0.0002
vn 0.7853 0.0373 -0.6180
vn 0.6391 0.0652 -0.7664
vn -0.2841 0.1018 -0.9534
vn -0.8640 0.0803 -0.4971
vn -0.3000 -0.0133 0.9539
vn -0.4400 0.3146 0.8411
vn -0.8575 0.3182 0.4042
vn -0.8610 0.4869 0.1473
vn -0.8584 0.4896 -0.1531
vn -0.8624 0.3218 -0.3909
vn -0.6050 0.6751 -0.4222
vn 0.0000 0.8478 -0.5303
vn -0.6206 0.0000 -0.7841
vn 0.8052 -0.5789 -0.1286
vn 0.6876 -0.7232 0.0645
vn 0.7756 -0.3935 -0.4936
vn -0.9923 -0.0020 0.1237
vn 0.5394 -0.8260 0.1638
vn -0.7070 -0.0004 0.7072
vn 0.7071 -0.0000 0.7071
vn 0.7071 0.7071 -0.0004
vn 0.6206 0.0000 -0.7841
vn 0.6050 0.6751 -0.4222
vn -0.6050 -0.6751 -0.4222
vn 0.0000 -0.8478 -0.5303
vn 0.6050 -0.6751 -0.4222
vn -0.5892 -0.8062 0.0534
vn -0.5649 -0.0339 -0.8245
vn 0.5649 -0.0339 -0.8245
vn 0.5892 -0.8062 0.0534
vn -0.5677 0.0489 0.8218
vn 0.5677 0.0489 0.8218
vn 0.5915 0.8058 -0.0275
vn -0.5915 0.8058 -0.0275
vn 0.4684 -0.6688 -0.5773
vn 0.6688 0.4683 -0.5773
vn 0.6688 0.4683 0.5774
vn 0.4683 -0.6688 0.5774
vn -0.6688 -0.4682 -0.5775
vn -0.6688 -0.4684 0.5774
vn -0.4684 0.6688 0.5773
vn -0.4683 0.6688 -0.5774
vn 0.4683 -0.6688 -0.5773
vn 0.6688 0.4683 -0.5774
vn 0.6688 0.4684 0.5774
vn 0.4682 -0.6690 0.5773
vn -0.6688 -0.4683 -0.5774
vn -0.6689 -0.4682 0.5774
vn -0.4683 0.6688 0.5774
vn -0.6556 0.5965 -0.4630
vn -0.5753 0.5777 0.5791
vn 0.5774 0.5774 0.5774
vn 0.4795 0.5618 -0.6741
vn -0.8169 0.0000 -0.5768
vn -0.7048 -0.0000 0.7094
vn 0.5795 -0.0000 -0.8150
# 147 vertex normals

vt 0.1294 0.0660 0.0000
vt 0.2768 0.0653 0.0000
vt 0.2752 0.2492 0.0000
vt 0.1274 0.2497 0.0000
vt 0.3175 0.9724 0.0000
vt 0.1669 0.9724 0.0000
vt 0.1669 0.7965 0.0000
vt 0.3175 0.7965 0.0000
vt 0.4310 0.7965 0.0000
vt 0.4310 0.9786 0.0000
vt 0.3980 0.9724 0.0000
vt 0.3980 0.7965 0.0000
vt 0.1218 0.2730 0.0000
vt 0.2752 0.2739 0.0000
vt 0.2759 0.3065 0.0000
vt 0.1226 0.3057 0.0000
vt 0.0200 0.9786 0.0000
vt 0.0200 0.7965 0.0000
vt 0.0284 0.7965 0.0000
vt 0.0284 0.9786 0.0000
vt 0.0728 0.8102 0.0000
vt 0.0594 0.8191 0.0000
vt 0.0595 0.8116 0.0000
vt 0.4245 0.0872 0.0000
vt 0.4410 0.0950 0.0000
vt 0.4042 0.2762 0.0000
vt 0.3923 0.2703 0.0000
vt 0.0663 0.9724 0.0000
vt 0.0502 0.9724 0.0000
vt 0.0502 0.7965 0.0000
vt 0.0663 0.7965 0.0000
vt 0.3846 0.2998 0.0000
vt 0.3998 0.3072 0.0000
vt 0.4002 0.3155 0.0000
vt 0.3849 0.3164 0.0000
vt 0.1670 0.7629 0.0000
vt 0.3175 0.7635 0.0000
vt 0.1668 0.7958 0.0000
vt 0.0729 0.7947 0.0000
vt 0.0865 0.7624 0.0000
vt 0.0863 0.7954 0.0000
vt 0.0461 0.8171 0.0000
vt 0.0430 0.8093 0.0000
vt 0.4547 0.1003 0.0000
vt 0.4154 0.2797 0.0000
vt 0.3667 0.2563 0.0000
vt 0.3878 0.0741 0.0000
vt 0.0367 0.9724 0.0000
vt 0.0367 0.7965 0.0000
vt 0.0863 0.7965 0.0000
vt 0.0863 0.9724 0.0000
vt 0.4161 0.3044 0.0000
vt 0.4175 0.3124 0.0000
vt 0.3641 0.3058 0.0000
vt 0.3594 0.2748 0.0000
vt 0.2773 0.3760 0.0000
vt 0.1210 0.3759 0.0000
vt 0.1229 0.3643 0.0000
vt 0.2756 0.3647 0.0000
vt 0.0202 0.3080 0.0000
vt 0.0200 0.2645 0.0000
vt 0.0352 0.2736 0.0000
vt 0.0388 0.3056 0.0000
vt 0.1272 0.2497 0.0000
vt 0.2756 0.2496 0.0000
vt 0.2760 0.2620 0.0000
vt 0.1270 0.2619 0.0000
vt 0.5419 0.5019 0.0000
vt 0.6791 0.4386 0.0000
vt 0.7009 0.4884 0.0000
vt 0.5656 0.5508 0.0000
vt 0.0413 0.3165 0.0000
vt 0.0314 0.3220 0.0000
vt 0.3409 0.0663 0.0000
vt 0.3676 0.0666 0.0000
vt 0.3587 0.2502 0.0000
vt 0.3347 0.2482 0.0000
vt 0.0648 0.2506 0.0000
vt 0.0398 0.2518 0.0000
vt 0.0470 0.0726 0.0000
vt 0.0693 0.0681 0.0000
vt 0.1128 0.9724 0.0000
vt 0.1128 0.7965 0.0000
vt 0.3716 0.7965 0.0000
vt 0.3716 0.9724 0.0000
vt 0.3311 0.2758 0.0000
vt 0.3329 0.3075 0.0000
vt 0.0668 0.3066 0.0000
vt 0.0653 0.2761 0.0000
vt 0.3716 0.7635 0.0000
vt 0.3980 0.7635 0.0000
vt 0.1127 0.7955 0.0000
vt 0.1129 0.7626 0.0000
vt 0.0620 0.3561 0.0000
vt 0.0680 0.3469 0.0000
vt 0.3317 0.3479 0.0000
vt 0.3495 0.3338 0.0000
vt 0.3512 0.3454 0.0000
vt 0.3356 0.3581 0.0000
vt 0.3355 0.2461 0.0000
vt 0.3592 0.2473 0.0000
vt 0.3558 0.2520 0.0000
vt 0.3352 0.2541 0.0000
vt 0.0645 0.2572 0.0000
vt 0.0422 0.2541 0.0000
vt 0.0398 0.2484 0.0000
vt 0.0641 0.2482 0.0000
vt 0.7288 0.4165 0.0000
vt 0.7534 0.4062 0.0000
vt 0.7528 0.4168 0.0000
vt 0.7415 0.4520 0.0000
vt 0.5116 0.5581 0.0000
vt 0.4908 0.5495 0.0000
vt 0.4687 0.5374 0.0000
vt 0.4928 0.5254 0.0000
vt 0.3678 0.3387 0.0000
vt 0.3282 0.0652 0.0000
vt 0.3244 0.2492 0.0000
vt 0.0765 0.2487 0.0000
vt 0.0805 0.0657 0.0000
vt 0.3265 0.2497 0.0000
vt 0.3296 0.2628 0.0000
vt 0.0758 0.2599 0.0000
vt 0.0756 0.2480 0.0000
vt 0.4319 0.2997 0.0000
vt 0.4297 0.3112 0.0000
vt 0.4229 0.3804 0.0000
vt 0.4070 0.3937 0.0000
vt 0.4023 0.3833 0.0000
vt 0.4136 0.3735 0.0000
vt 0.3894 0.3959 0.0000
vt 0.3913 0.3846 0.0000
vt 0.3694 0.3865 0.0000
vt 0.3766 0.3779 0.0000
vt 0.4627 0.5569 0.0000
vt 0.4771 0.5682 0.0000
vt 0.4954 0.5859 0.0000
vt 0.4802 0.5928 0.0000
vt 0.3864 0.3569 0.0000
vt 0.3660 0.3619 0.0000
vt 0.4005 0.3236 0.0000
vt 0.3998 0.3550 0.0000
vt 0.4156 0.3214 0.0000
vt 0.4213 0.3551 0.0000
vt 0.4351 0.3204 0.0000
vt 0.4324 0.3571 0.0000
vt 0.4414 0.5760 0.0000
vt 0.4544 0.5712 0.0000
vt 0.4685 0.5987 0.0000
vt 0.4533 0.6066 0.0000
vt 0.3562 0.3661 0.0000
vt 0.3601 0.3445 0.0000
vt 0.4970 0.6026 0.0000
vt 0.4896 0.6151 0.0000
vt 0.4807 0.6196 0.0000
vt 0.4675 0.6176 0.0000
vt 0.0294 0.0658 0.0000
vt 0.0585 0.0444 0.0000
vt 0.0633 0.0566 0.0000
vt 0.0388 0.0695 0.0000
vt 0.1191 0.0388 0.0000
vt 0.1197 0.0534 0.0000
vt 0.2753 0.0379 0.0000
vt 0.2755 0.0525 0.0000
vt 0.3334 0.0364 0.0000
vt 0.3347 0.0514 0.0000
vt 0.3645 0.0363 0.0000
vt 0.3611 0.0490 0.0000
vt 0.3984 0.0200 0.0000
vt 0.3892 0.0314 0.0000
vt 0.4149 0.0211 0.0000
vt 0.4056 0.0325 0.0000
vt 0.4238 0.0315 0.0000
vt 0.4191 0.0372 0.0000
vt 0.4771 0.1153 0.0000
vt 0.4300 0.2932 0.0000
vt 0.4266 0.2872 0.0000
vt 0.4699 0.1093 0.0000
vt 0.3988 0.2902 0.0000
vt 0.4107 0.2908 0.0000
vt 0.4116 0.2978 0.0000
vt 0.3837 0.2840 0.0000
vt 0.3561 0.2623 0.0000
vt 0.3562 0.2628 0.0000
vt 0.0276 0.2546 0.0000
vt 0.0292 0.2555 0.0000
vt 0.3571 0.2629 0.0000
vt 0.2750 0.2595 0.0000
vt 0.1211 0.2586 0.0000
vt 0.0649 0.2656 0.0000
vt 0.0378 0.2638 0.0000
vt 0.3577 0.2642 0.0000
vt 0.4839 0.1194 0.0000
vt 0.4195 0.2944 0.0000
vt 0.4201 0.2995 0.0000
vt 0.4623 0.1042 0.0000
vt 0.4213 0.2825 0.0000
vt 0.4145 0.0429 0.0000
vt 0.4277 0.0442 0.0000
vt 0.4204 0.0476 0.0000
vt 0.4155 0.2912 0.0000
vt 0.4296 0.0363 0.0000
vt 0.0462 0.8015 0.0000
vt 0.0595 0.8040 0.0000
vt 0.7605 0.4174 0.0000
vt 0.7479 0.4561 0.0000
vt 0.7051 0.4947 0.0000
vt 0.5677 0.5581 0.0000
vt 0.5108 0.5656 0.0000
vt 0.4930 0.5572 0.0000
vt 0.4852 0.5676 0.0000
vt 0.5022 0.5829 0.0000
vt 0.5043 0.6042 0.0000
vt 0.4948 0.6205 0.0000
vt 0.4818 0.6271 0.0000
vt 0.4645 0.6245 0.0000
vt 0.4471 0.6110 0.0000
vt 0.8658 0.5248 0.0000
vt 0.8932 0.4975 0.0000
vt 0.9571 0.5616 0.0000
vt 0.9297 0.5889 0.0000
vt 0.8579 0.5327 0.0000
vt 0.9218 0.5968 0.0000
vt 0.8949 0.6236 0.0000
vt 0.8310 0.5594 0.0000
vt 0.9630 0.5719 0.0000
vt 0.9358 0.5983 0.0000
vt 0.8865 0.6320 0.0000
vt 0.8226 0.5678 0.0000
vt 0.8564 0.5186 0.0000
vt 0.8829 0.4915 0.0000
vt 0.5905 0.6695 0.0000
vt 0.5965 0.7173 0.0000
vt 0.5400 0.7244 0.0000
vt 0.5340 0.6766 0.0000
vt 0.5890 0.6571 0.0000
vt 0.5325 0.6641 0.0000
vt 0.5265 0.6163 0.0000
vt 0.5830 0.6093 0.0000
vt 0.5276 0.7259 0.0000
vt 0.5216 0.6781 0.0000
vt 0.5250 0.6039 0.0000
vt 0.5815 0.5969 0.0000
vt 0.6030 0.6680 0.0000
vt 0.6089 0.7158 0.0000
vt 0.3224 0.5515 0.0000
vt 0.3499 0.5811 0.0000
vt 0.3150 0.6136 0.0000
vt 0.2875 0.5840 0.0000
vt 0.3153 0.5438 0.0000
vt 0.2803 0.5763 0.0000
vt 0.2529 0.5467 0.0000
vt 0.2878 0.5143 0.0000
vt 0.3073 0.6207 0.0000
vt 0.2798 0.5911 0.0000
vt 0.2457 0.5391 0.0000
vt 0.2807 0.5066 0.0000
vt 0.3301 0.5444 0.0000
vt 0.3576 0.5740 0.0000
vt 0.6808 0.1849 0.0000
vt 0.7916 0.0418 0.0000
vt 0.9358 0.1520 0.0000
vt 0.7874 0.3463 0.0000
vt 0.6791 0.1863 0.0000
vt 0.5517 0.0578 0.0000
vt 0.5533 0.0563 0.0000
vt 0.7929 0.0401 0.0000
vt 0.9372 0.1502 0.0000
vt 0.9588 0.5205 0.0000
vt 0.7857 0.3477 0.0000
vt 0.9604 0.5189 0.0000
# 271 texture coords

o ??
g ??
usemtl 01___Default
s 2
f 1/1/1 2/2/1 3/3/2 4/4/3 
s 4
f 5/5/4 6/6/4 7/7/4 8/8/4 
s 8
f 9/9/5 10/10/6 11/11/7 12/12/8 
s 16
f 13/13/9 14/14/10 15/15/10 16/16/10 
s 32
f 17/17/11 18/18/12 19/19/13 20/20/14 
s 64
f 21/21/15 22/22/16 23/23/17 
s 2
f 24/24/18 25/25/19 26/26/20 27/27/21 
s 4
f 28/28/22 29/29/23 22/30/16 21/31/15 
s 16
f 30/32/24 31/33/25 32/34/26 33/35/27 
s 64
f 34/36/17 35/37/17 8/8/4 7/38/4 
f 36/39/17 37/40/17 38/41/28 21/21/15 
f 22/22/16 39/42/29 19/43/13 23/23/17 
s 2
f 25/25/19 40/44/30 41/45/31 26/26/20 
f 27/27/21 42/46/32 43/47/33 24/24/18 
s 4
f 29/29/23 44/48/34 39/49/29 22/30/16 
f 21/31/15 38/50/28 45/51/35 28/28/22 
s 16
f 31/33/25 46/52/36 47/53/37 32/34/26 
f 33/35/27 48/54/38 49/55/39 30/32/24 
s off
f 50/56/40 51/57/41 52/58/42 53/59/43 
f 11/60/7 10/61/6 54/62/44 55/63/44 
f 56/64/3 57/65/45 58/66/45 59/67/45 
f 6/68/4 5/69/4 60/70/46 61/71/47 
f 11/60/7 55/63/44 62/72/48 63/73/49 
f 16/16/10 15/15/10 53/59/43 52/58/42 
s 2
f 64/74/50 65/75/51 66/76/52 67/77/53 
f 68/78/54 69/79/55 70/80/50 71/81/51 
s 4
f 72/82/56 45/51/35 38/50/28 73/83/56 
f 74/84/56 12/12/8 11/11/7 75/85/56 
s 16
f 76/86/57 49/55/39 48/54/38 77/87/57 
f 78/88/9 55/63/44 54/62/44 79/89/9 
s 64
f 80/90/17 9/91/5 12/12/8 74/84/56 
f 73/92/56 38/41/28 37/40/17 81/93/17 
s off
f 82/94/58 63/73/49 62/72/48 83/95/59 
f 84/96/60 85/97/61 86/98/62 87/99/63 
f 88/100/64 89/101/65 90/102/66 91/103/53 
f 92/104/54 93/105/67 94/106/68 95/107/69 
f 75/108/56 11/109/7 96/110/70 97/111/71 
f 98/112/72 99/113/73 45/114/35 72/115/56 
f 48/54/38 100/116/74 85/97/61 
f 83/95/59 62/72/48 55/63/44 78/88/9 
s 2
f 2/2/1 101/117/75 102/118/64 3/3/2 
f 4/4/3 103/119/69 104/120/76 1/1/1 
s 4
f 6/6/4 72/82/56 73/83/56 7/7/4 
f 8/8/4 74/84/56 75/85/56 5/5/4 
s 16
f 14/14/10 76/86/57 77/87/57 15/15/10 
f 16/16/10 78/88/9 79/89/9 13/13/9 
s 64
f 35/37/17 80/90/17 74/84/56 8/8/4 
f 7/38/4 73/92/56 81/93/17 34/36/17 
s off
f 51/57/41 82/94/58 83/95/59 52/58/42 
f 53/59/43 84/96/60 87/99/63 50/56/40 
f 57/65/45 105/121/77 106/122/64 58/66/45 
f 59/67/45 107/123/78 108/124/54 56/64/3 
f 5/69/4 75/108/56 97/111/71 60/70/46 
f 61/71/47 98/112/72 72/115/56 6/68/4 
f 15/15/10 77/87/57 84/96/60 53/59/43 
f 52/58/42 83/95/59 78/88/9 16/16/10 
f 17/125/11 20/126/14 47/53/37 46/52/36 
f 109/127/79 110/128/80 111/129/81 112/130/82 
f 110/128/80 113/131/83 114/132/84 111/129/81 
f 113/131/83 115/133/85 116/134/86 114/132/84 
f 28/135/22 45/114/35 117/136/87 118/137/88 119/138/17 
f 48/54/38 33/35/27 120/139/89 121/140/90 100/116/74 
f 33/35/27 122/141/91 123/142/9 120/139/89 
f 122/141/91 124/143/92 125/144/93 123/142/9 
f 124/143/92 44/145/34 126/146/94 125/144/93 
f 44/147/34 29/148/23 127/149/17 128/150/95 
f 29/148/23 28/135/22 119/138/17 127/149/17 
f 100/116/74 121/140/90 129/151/96 130/152/97 
f 118/137/88 131/153/98 132/154/99 119/138/17 
f 120/139/89 114/132/84 116/134/86 121/140/90 
f 123/142/9 111/129/81 114/132/84 120/139/89 
f 125/144/93 112/130/82 111/129/81 123/142/9 
f 126/146/94 109/127/79 112/130/82 125/144/93 
f 127/149/17 133/155/100 134/156/101 128/150/95 
f 119/138/17 132/154/99 133/155/100 127/149/17 
f 121/140/90 116/134/86 115/133/85 129/151/96 
f 85/97/61 100/116/74 130/152/97 86/98/62 
f 99/113/73 117/136/87 45/114/35 
f 85/97/61 84/96/60 77/87/57 48/54/38 
f 9/157/5 80/158/17 104/159/76 135/160/5 
f 80/158/17 35/161/17 1/162/1 104/159/76 
f 35/161/17 34/163/17 2/164/1 1/162/1 
f 34/163/17 81/165/17 101/166/75 2/164/1 
f 81/165/17 37/167/17 43/168/33 101/166/75 
f 37/167/17 36/169/17 24/170/18 43/168/33 
f 36/169/17 136/171/17 25/172/19 24/170/18 
f 136/171/17 18/173/12 137/174/17 
f 138/175/102 139/176/103 140/177/14 141/178/104 
f 31/33/25 142/179/105 143/180/106 144/181/9 
f 31/33/25 30/32/24 145/182/107 142/179/105 
f 30/32/24 49/55/39 146/183/108 147/184/109 145/182/107 
f 10/61/6 9/157/5 135/160/5 148/185/110 149/186/110 
f 43/47/33 42/46/32 89/101/65 66/76/52 65/75/51 
f 102/118/64 101/117/75 64/74/50 67/77/53 88/100/64 
f 101/166/75 43/168/33 65/75/51 64/74/50 
f 104/120/76 103/119/69 95/107/69 68/78/54 71/81/51 
f 148/185/110 135/160/5 70/80/50 69/79/55 94/106/68 
f 135/160/5 104/159/76 71/81/51 70/80/50 
f 49/55/39 76/86/57 106/122/64 150/187/111 
f 76/86/57 14/14/10 58/188/45 106/122/64 
f 14/14/10 13/13/9 59/189/45 58/188/45 
f 13/13/9 79/89/9 107/190/78 59/189/45 
f 79/89/9 54/62/44 151/191/44 107/190/78 
f 54/62/44 10/61/6 149/186/110 151/191/44 
f 56/64/3 108/124/54 103/119/69 4/4/3 
f 57/65/45 56/64/3 4/4/3 3/3/2 
f 105/121/77 57/65/45 3/3/2 102/118/64 
f 106/122/64 105/121/77 102/118/64 88/100/64 91/103/53 
f 150/187/111 106/122/64 91/103/53 90/102/66 152/192/112 
f 108/124/54 107/123/78 92/104/54 95/107/69 103/119/69 
f 107/190/78 151/191/44 93/105/67 92/104/54 
f 151/191/44 149/186/110 148/185/110 94/106/68 93/105/67 
f 89/101/65 88/100/64 67/77/53 66/76/52 
f 95/107/69 94/106/68 69/79/55 68/78/54 
f 18/193/12 17/125/11 139/176/103 138/175/102 
f 46/52/36 144/181/9 153/194/113 154/195/114 
f 41/45/31 40/44/30 155/196/115 156/197/116 
f 40/198/30 137/174/17 141/199/104 155/200/115 
f 42/46/32 27/27/21 145/182/107 147/184/109 152/192/112 
f 27/27/21 26/26/20 142/179/105 145/182/107 
f 26/26/20 41/45/31 143/180/106 142/179/105 
f 41/45/31 156/197/116 157/201/117 143/180/106 
f 156/197/116 140/177/14 153/194/113 157/201/117 
f 139/176/103 17/125/11 46/52/36 154/195/114 
f 150/187/111 146/183/108 49/55/39 
f 42/46/32 152/192/112 90/102/66 89/101/65 
f 152/192/112 147/184/109 146/183/108 150/187/111 
f 140/177/14 156/197/116 155/196/115 141/178/104 
f 144/181/9 143/180/106 157/201/117 153/194/113 
f 137/174/17 18/173/12 138/202/102 141/199/104 
f 140/177/14 139/176/103 154/195/114 153/194/113 
f 137/174/17 40/198/30 25/172/19 136/171/17 
f 144/181/9 46/52/36 31/33/25 
s 32
f 19/19/13 39/49/29 44/48/34 20/20/14 
s 64
f 19/43/13 18/203/12 136/204/17 23/23/17 
s 16
f 47/53/37 124/143/92 122/141/91 32/34/26 
s off
f 20/126/14 44/145/34 124/143/92 47/53/37 
s 16
f 32/34/26 122/141/91 33/35/27 
s 64
f 23/23/17 136/204/17 36/39/17 21/21/15 
s off
f 11/109/7 63/205/49 96/110/70 
f 63/205/49 82/206/58 97/111/71 96/110/70 
f 82/206/58 51/207/41 60/70/46 97/111/71 
f 51/207/41 50/208/40 61/71/47 60/70/46 
f 50/208/40 87/209/63 98/112/72 61/71/47 
f 87/209/63 86/210/62 99/113/73 98/112/72 
f 86/210/62 130/211/97 117/136/87 99/113/73 
f 130/211/97 129/212/96 118/137/88 117/136/87 
f 129/212/96 115/213/85 131/153/98 118/137/88 
f 115/213/85 113/214/83 132/154/99 131/153/98 
f 113/214/83 110/215/80 133/155/100 132/154/99 
f 110/215/80 109/216/79 134/156/101 133/155/100 
f 109/216/79 126/217/94 128/150/95 134/156/101 
f 126/217/94 44/147/34 128/150/95 
s 2
f 158/218/118 159/219/119 160/220/120 161/221/121 
s 4
f 162/222/122 163/223/123 164/224/124 165/225/125 
s 8
f 158/218/118 161/221/121 163/223/123 162/222/122 
s 16
f 161/221/121 160/220/120 164/226/124 163/227/123 
s 32
f 160/228/120 159/229/119 165/225/125 164/224/124 
s 64
f 159/219/119 158/218/118 162/230/122 165/231/125 
s 2
f 166/232/126 167/233/127 168/234/128 169/235/129 
s 4
f 170/236/130 171/237/131 172/238/132 173/239/133 
s 8
f 166/232/126 169/235/129 171/237/131 170/236/130 
s 16
f 169/235/129 168/234/128 172/240/132 171/241/131 
s 32
f 168/242/128 167/243/127 173/239/133 172/238/132 
s 64
f 167/233/127 166/232/126 170/244/130 173/245/133 
s 2
f 174/246/134 175/247/135 176/248/136 177/249/137 
s 4
f 178/250/138 179/251/139 180/252/140 181/253/133 
s 8
f 174/246/134 177/249/137 179/251/139 178/250/138 
s 16
f 177/249/137 176/248/136 180/254/140 179/255/139 
s 32
f 176/256/136 175/257/135 181/253/133 180/252/140 
s 64
f 175/247/135 174/246/134 178/258/138 181/259/133 
s 1
f 182/260/141 183/261/142 184/262/143 185/263/144 
s off
f 186/264/145 187/265/146 183/266/142 182/260/141 
f 187/267/146 188/268/111 184/262/143 183/261/142 
f 188/269/111 189/270/147 185/263/144 184/271/143 
f 189/270/147 186/264/145 182/260/141 185/263/144 
# 167 polygons - 9 triangles

