# 3ds Max Wavefront OBJ Exporter v0.99 - (c)2007 guruware
# File Created: 27.04.2022 01:33:23

mtllib ???_??.mtl

#
# object ???_??
#

v  1003.0281 80.9184 -142.0286
v  601.8646 80.9184 -142.0286
v  601.8646 80.9184 -97.2947
v  1003.0281 80.9184 -97.2947
v  692.3013 53.9043 -163.6016
v  912.5914 53.9043 -163.6016
v  912.5914 53.9043 61.3037
v  692.3013 53.9043 61.3037
v  590.8311 61.8780 61.3037
v  590.8311 53.9043 61.3037
v  1014.0616 53.9043 61.3037
v  1014.0616 61.8780 61.3037
v  1014.0616 53.9043 -163.6016
v  1014.0616 61.8780 -163.6016
v  590.8311 53.9043 -163.6016
v  590.8311 61.8780 -163.6016
v  912.5914 -123.3355 -163.6016
v  1014.0616 -123.3355 -163.6016
v  1014.0616 -123.3354 61.3037
v  912.5914 -123.3354 61.3037
v  692.3013 -123.3354 61.3037
v  590.8311 -123.3354 61.3037
v  590.8311 -123.3355 -163.6016
v  692.3013 -123.3355 -163.6016
v  1009.9122 17.7842 83.8117
v  1009.9122 19.1231 85.1402
v  1005.4756 19.1231 85.1402
v  1005.4756 17.7842 83.8117
v  688.1520 17.7842 83.8117
v  688.1520 19.1231 85.1402
v  683.7153 19.1231 85.1402
v  683.7153 17.7842 83.8117
v  1018.7858 68.1770 66.0280
v  586.1069 68.1770 66.0280
v  1018.7858 68.1770 -168.3257
v  586.1069 68.1770 -168.3257
v  1018.7858 80.9184 66.0280
v  586.1069 80.9184 66.0280
v  1018.7858 80.9184 -168.3257
v  1018.7858 80.9184 -142.0286
v  586.1069 80.9184 -168.3257
v  586.1069 80.9184 -97.2947
v  907.8672 58.6285 67.6027
v  1018.7858 58.6285 67.6027
v  907.8671 -123.4133 67.6027
v  1018.7858 -123.4133 67.6027
v  586.1069 58.6285 67.6027
v  697.0255 58.6285 67.6027
v  586.1069 -123.4133 67.6027
v  697.0255 -123.4133 67.6027
v  907.8672 58.6285 76.0998
v  1018.7858 58.6285 76.0998
v  907.8671 -123.4133 76.0997
v  907.8671 1.6619 76.0998
v  1018.7858 -123.4133 76.0997
v  1018.7858 37.7669 76.0998
v  586.1069 58.6285 76.0997
v  697.0255 58.6285 76.0997
v  586.1069 -123.4133 76.0997
v  586.1069 1.6619 76.0997
v  697.0255 -123.4133 76.0997
v  697.0255 37.7669 76.0997
v  586.1069 80.9184 -142.0286
v  1018.7858 80.9184 -97.2947
v  601.8646 349.0007 -142.0286
v  586.1069 349.0007 -142.0286
v  586.1069 349.0007 -97.2947
v  601.8646 349.0007 -97.2947
v  1003.0281 349.0007 -97.2947
v  1018.7858 349.0007 -97.2947
v  1018.7858 349.0007 -142.0286
v  1003.0281 349.0007 -142.0286
v  586.1069 215.5403 -97.2947
v  586.1069 231.9001 -97.2946
v  586.1069 231.9001 -142.0286
v  586.1069 215.5403 -142.0286
v  601.8646 215.5403 -97.2947
v  601.8646 231.9001 -97.2946
v  601.8646 215.5403 -142.0286
v  601.8646 231.9001 -142.0286
v  1018.7858 215.5403 -142.0286
v  1018.7858 231.9001 -142.0286
v  1018.7858 231.9001 -97.2946
v  1018.7858 215.5403 -97.2947
v  1003.0281 215.5403 -142.0286
v  1003.0281 231.9001 -142.0286
v  1003.0281 215.5403 -97.2947
v  1003.0281 231.9001 -97.2946
v  586.1069 335.6720 -97.2947
v  586.1069 335.6720 -142.0286
v  601.8646 335.6720 -97.2947
v  601.8646 335.6720 -142.0286
v  1018.7858 335.6721 -142.0286
v  1018.7858 335.6721 -97.2947
v  1003.0281 335.6721 -142.0286
v  1003.0281 335.6721 -97.2947
v  560.9111 335.6720 -72.0990
v  560.9111 349.0007 -72.0989
v  560.9111 349.0007 -167.2244
v  560.9111 335.6720 -167.2244
v  601.8646 335.6720 -72.0990
v  601.8646 349.0007 -72.0989
v  601.8646 349.0007 -167.2244
v  601.8646 335.6720 -167.2244
v  1043.9816 335.6720 -167.2244
v  1043.9816 349.0006 -167.2244
v  1043.9816 349.0007 -72.0989
v  1043.9816 335.6721 -72.0990
v  1003.0281 335.6721 -167.2244
v  1003.0281 349.0007 -167.2244
v  1003.0281 349.0007 -72.0989
v  1003.0281 335.6721 -72.0990
v  1018.7858 1.6619 76.0997
v  1009.9122 1.6619 76.0997
v  1005.4756 1.6619 76.0997
v  907.8672 37.7669 76.0998
v  1005.4756 37.7669 76.0998
v  1009.9122 37.7669 76.0998
v  697.0255 1.6619 76.0997
v  688.1520 1.6619 76.0997
v  586.1069 37.7669 76.0997
v  683.7153 37.7669 76.0997
v  1009.9122 36.1957 76.0998
v  1005.4756 17.7842 76.0997
v  688.1520 37.7669 76.0997
v  688.1520 36.1957 76.0997
v  683.7153 1.6619 76.0997
v  683.7153 17.7842 76.0997
v  1009.9122 36.1957 85.1403
v  1009.9122 37.7669 83.8117
v  1005.4756 37.7669 83.8117
v  1005.4756 36.1957 85.1403
v  1009.9122 19.1231 76.0997
v  1005.4756 36.1957 76.0998
v  1005.4756 19.1231 76.0997
v  1009.9122 17.7842 76.0997
v  688.1520 36.1957 85.1402
v  688.1520 37.7669 83.8117
v  683.7153 37.7669 83.8117
v  683.7153 36.1957 85.1402
v  688.1520 19.1231 76.0997
v  683.7153 36.1957 76.0997
v  683.7153 19.1231 76.0997
v  688.1520 17.7842 76.0997
v  1009.9122 19.1231 83.9807
v  1009.9122 17.7842 82.6521
v  1005.4756 19.1231 83.9807
v  1005.4756 17.7842 82.6521
v  688.1520 19.1231 83.9806
v  688.1520 17.7842 82.6521
v  683.7153 19.1231 83.9806
v  683.7153 17.7842 82.6521
v  1005.4756 37.7669 82.6521
v  1009.9122 37.7669 82.6521
v  1005.4756 36.1957 83.9807
v  1009.9122 36.1957 83.9807
v  683.7153 37.7669 82.6521
v  688.1520 37.7669 82.6521
v  683.7153 36.1957 83.9806
v  688.1520 36.1957 83.9806
# 160 vertices

vn -0.3015 0.9045 -0.3015
vn 0.3015 0.9045 -0.3015
vn 0.3015 0.9045 0.3015
vn -0.3015 0.9045 0.3015
vn 0.3015 -0.3015 -0.9045
vn -0.3015 -0.3015 -0.9045
vn -0.9824 0.0356 0.1833
vn 0.9824 0.0356 0.1833
vn -0.6197 -0.4816 0.6197
vn -0.9277 0.3244 -0.1849
vn 0.9277 0.3244 -0.1849
vn 0.6197 -0.4816 0.6197
vn 0.7071 0.0000 -0.7071
vn 0.6197 -0.4816 -0.6197
vn -0.7071 0.0000 -0.7071
vn -0.6197 -0.4816 -0.6197
vn -0.5774 -0.5774 -0.5774
vn 0.5774 -0.5774 -0.5774
vn 0.5872 -0.7838 -0.2021
vn -0.5872 -0.7838 -0.2021
vn 0.6299 -0.7169 0.2986
vn 0.6306 -0.2956 0.7176
vn -0.6306 -0.2956 0.7176
vn -0.6299 -0.7169 0.2986
vn 0.6642 -0.3429 0.6642
vn -0.6642 -0.3429 0.6642
vn 0.6642 -0.3429 -0.6642
vn -0.6642 -0.3429 -0.6642
vn 0.5774 0.5774 0.5774
vn -0.5774 0.5774 0.5774
vn 0.5774 0.5774 -0.5774
vn 0.9045 0.3015 -0.3015
vn -0.5774 0.5774 -0.5774
vn -0.9045 0.3015 0.3015
vn -0.6642 0.6642 -0.3429
vn 0.6642 0.6642 -0.3429
vn -0.7259 -0.6431 -0.2441
vn 0.7259 -0.6431 -0.2441
vn -0.5774 -0.5774 0.5774
vn -0.7071 0.0000 0.7071
vn 0.5774 -0.5774 0.5774
vn 0.7071 -0.0000 0.7071
vn 0.7071 0.0000 0.7071
vn -0.9045 0.3015 -0.3015
vn 0.9045 0.3015 0.3015
vn 0.0000 1.0000 -0.0000
vn -0.7071 -0.0000 0.7071
vn 0.3015 -0.3015 0.9045
vn 0.3015 0.3015 0.9045
vn 0.3015 0.3015 -0.9045
vn -0.3015 0.3015 -0.9045
vn -0.3015 -0.3015 0.9045
vn -0.3015 0.3015 0.9045
vn -0.3015 -0.9045 0.3015
vn -0.3015 -0.9045 -0.3015
vn 0.3015 -0.9045 0.3015
vn 0.3015 -0.9045 -0.3015
vn -0.5773 -0.5774 0.5773
vn -0.5774 0.5773 0.5774
vn 0.0000 -0.7071 0.7071
vn 0.0000 0.7071 0.7071
vn 0.0000 0.7071 -0.7071
vn 0.0000 -0.7071 -0.7071
vn 0.5773 -0.5774 -0.5774
vn 0.5774 0.5773 -0.5774
vn 0.5774 0.5773 0.5774
vn 0.5773 -0.5774 0.5774
vn -0.0000 -0.7071 -0.7071
vn 0.0000 -0.0000 1.0000
vn 0.0000 0.0000 1.0000
vn 0.6373 0.2649 0.7236
vn 0.6235 0.7092 0.3291
vn -0.6235 0.7092 0.3291
vn -0.6373 0.2649 0.7236
vn 0.7071 -0.7071 -0.0000
vn -0.7071 -0.7071 -0.0000
vn -0.7071 -0.7071 0.0000
vn -0.7071 0.7071 -0.0000
vn 0.7071 0.7071 -0.0000
vn -0.9045 -0.3015 -0.3015
vn 0.9045 -0.3015 -0.3015
# 81 vertex normals

vt 0.7798 0.9348 0.0000
vt 0.4873 0.9029 0.0000
vt 0.4908 0.8702 0.0000
vt 0.7834 0.9021 0.0000
vt 0.4036 0.0380 0.0000
vt 0.5652 0.0410 0.0000
vt 0.5622 0.2059 0.0000
vt 0.4006 0.2030 0.0000
vt 0.5329 0.7261 0.0000
vt 0.5329 0.7203 0.0000
vt 0.6073 0.7203 0.0000
vt 0.7689 0.7203 0.0000
vt 0.8434 0.7203 0.0000
vt 0.8434 0.7261 0.0000
vt 0.0200 0.0397 0.0000
vt 0.0258 0.0397 0.0000
vt 0.0259 0.2047 0.0000
vt 0.0200 0.2047 0.0000
vt 0.0259 0.2791 0.0000
vt 0.0259 0.4407 0.0000
vt 0.0259 0.5152 0.0000
vt 0.0200 0.5152 0.0000
vt 0.0259 0.6802 0.0000
vt 0.0200 0.6802 0.0000
vt 0.6952 0.0433 0.0000
vt 0.7696 0.0447 0.0000
vt 0.7666 0.2097 0.0000
vt 0.6922 0.2083 0.0000
vt 0.2706 0.2006 0.0000
vt 0.1962 0.1993 0.0000
vt 0.1992 0.0343 0.0000
vt 0.2736 0.0357 0.0000
vt 0.1559 0.0397 0.0000
vt 0.1559 0.2047 0.0000
vt 0.9411 0.5851 0.0000
vt 0.9412 0.5863 0.0000
vt 0.9379 0.5863 0.0000
vt 0.9380 0.5851 0.0000
vt 0.1559 0.2791 0.0000
vt 0.1559 0.5152 0.0000
vt 0.1559 0.6802 0.0000
vt 0.1559 0.4407 0.0000
vt 0.9176 0.5851 0.0000
vt 0.9177 0.5863 0.0000
vt 0.9144 0.5863 0.0000
vt 0.9144 0.5851 0.0000
vt 0.0432 0.7406 0.0000
vt 0.3536 0.7400 0.0000
vt 0.3571 0.7458 0.0000
vt 0.0397 0.7464 0.0000
vt 0.1926 0.4540 0.0000
vt 0.5100 0.4540 0.0000
vt 0.5100 0.4633 0.0000
vt 0.1926 0.4633 0.0000
vt 0.5104 0.4633 0.0000
vt 0.4911 0.4642 0.0000
vt 0.2451 0.4612 0.0000
vt 0.1435 0.2926 0.0000
vt 0.0679 0.2923 0.0000
vt 0.0644 0.2865 0.0000
vt 0.1449 0.2863 0.0000
vt 0.4438 0.4273 0.0000
vt 0.3399 0.3485 0.0000
vt 0.3434 0.3439 0.0000
vt 0.4501 0.4247 0.0000
vt 0.2638 0.3486 0.0000
vt 0.2633 0.3437 0.0000
vt 0.2638 0.3487 0.0000
vt 0.9753 0.6790 0.0000
vt 0.8880 0.6790 0.0000
vt 0.8918 0.6760 0.0000
vt 0.9714 0.6760 0.0000
vt 0.8895 0.5427 0.0000
vt 0.8922 0.5457 0.0000
vt 0.8941 0.6367 0.0000
vt 0.9737 0.5427 0.0000
vt 0.9710 0.5457 0.0000
vt 0.9703 0.6626 0.0000
vt 0.4737 0.9208 0.0000
vt 0.4758 0.9016 0.0000
vt 0.8079 0.7843 0.0000
vt 0.7949 0.9034 0.0000
vt 0.2123 0.4626 0.0000
vt 0.1930 0.4634 0.0000
vt 0.1926 0.4541 0.0000
vt 0.3127 0.4581 0.0000
vt 0.1930 0.4633 0.0000
vt 0.5228 0.5269 0.0000
vt 0.5339 0.5270 0.0000
vt 0.5339 0.5598 0.0000
vt 0.5228 0.5599 0.0000
vt 0.2270 0.5599 0.0000
vt 0.2158 0.5598 0.0000
vt 0.2158 0.5270 0.0000
vt 0.2270 0.5269 0.0000
vt 0.4794 0.8690 0.0000
vt 0.4923 0.7499 0.0000
vt 0.7913 0.9360 0.0000
vt 0.7892 0.9552 0.0000
vt 0.4228 0.8832 0.0000
vt 0.4228 0.8952 0.0000
vt 0.3899 0.8952 0.0000
vt 0.3899 0.8831 0.0000
vt 0.3899 0.7844 0.0000
vt 0.4227 0.7844 0.0000
vt 0.7654 0.3685 0.0000
vt 0.7762 0.3736 0.0000
vt 0.7714 0.3841 0.0000
vt 0.7605 0.3790 0.0000
vt 0.6710 0.3373 0.0000
vt 0.6759 0.3268 0.0000
vt 0.6350 0.2271 0.0000
vt 0.7337 0.2271 0.0000
vt 0.7337 0.2599 0.0000
vt 0.6350 0.2599 0.0000
vt 0.3784 0.8952 0.0000
vt 0.3784 0.8832 0.0000
vt 0.3784 0.7844 0.0000
vt 0.0725 0.8852 0.0000
vt 0.0726 0.8972 0.0000
vt 0.0397 0.8972 0.0000
vt 0.0397 0.8852 0.0000
vt 0.0397 0.7864 0.0000
vt 0.0725 0.7864 0.0000
vt 0.0841 0.8852 0.0000
vt 0.0841 0.8972 0.0000
vt 0.0841 0.7864 0.0000
vt 0.3407 0.2599 0.0000
vt 0.2419 0.2599 0.0000
vt 0.2419 0.2271 0.0000
vt 0.3407 0.2271 0.0000
vt 0.8951 0.0916 0.0000
vt 0.9060 0.0967 0.0000
vt 0.9011 0.1071 0.0000
vt 0.8902 0.1020 0.0000
vt 0.8008 0.0601 0.0000
vt 0.8057 0.0496 0.0000
vt 0.4228 0.9713 0.0000
vt 0.3899 0.9713 0.0000
vt 0.8452 0.4058 0.0000
vt 0.8404 0.4163 0.0000
vt 0.5315 0.6847 0.0000
vt 0.4547 0.7104 0.0000
vt 0.4572 0.7144 0.0000
vt 0.5134 0.6561 0.0000
vt 0.3784 0.9713 0.0000
vt 0.0726 0.9733 0.0000
vt 0.0397 0.9733 0.0000
vt 0.0841 0.9733 0.0000
vt 0.7789 0.5084 0.0000
vt 0.7218 0.5644 0.0000
vt 0.7038 0.5359 0.0000
vt 0.9749 0.1290 0.0000
vt 0.9700 0.1395 0.0000
vt 0.5571 0.5813 0.0000
vt 0.5521 0.5773 0.0000
vt 0.5521 0.5094 0.0000
vt 0.5571 0.5054 0.0000
vt 0.5239 0.5884 0.0000
vt 0.5231 0.5785 0.0000
vt 0.5231 0.5082 0.0000
vt 0.5239 0.4984 0.0000
vt 0.1926 0.5054 0.0000
vt 0.1977 0.5094 0.0000
vt 0.1977 0.5773 0.0000
vt 0.1926 0.5813 0.0000
vt 0.2258 0.4984 0.0000
vt 0.2267 0.5082 0.0000
vt 0.2267 0.5785 0.0000
vt 0.2258 0.5884 0.0000
vt 0.4392 0.7072 0.0000
vt 0.4535 0.7297 0.0000
vt 0.4518 0.7563 0.0000
vt 0.4145 0.6973 0.0000
vt 0.4704 0.7308 0.0000
vt 0.7317 0.5806 0.0000
vt 0.7318 0.5581 0.0000
vt 0.7580 0.5641 0.0000
vt 0.7137 0.5296 0.0000
vt 0.7196 0.5033 0.0000
vt 0.6934 0.5200 0.0000
vt 0.4455 0.6915 0.0000
vt 0.8536 0.9141 0.0000
vt 0.8436 0.8229 0.0000
vt 0.9285 0.8129 0.0000
vt 0.9362 0.9048 0.0000
vt 0.9280 0.9059 0.0000
vt 0.9248 0.9063 0.0000
vt 0.9373 0.9315 0.0000
vt 0.9390 0.9467 0.0000
vt 0.8581 0.9556 0.0000
vt 0.8565 0.9404 0.0000
vt 0.9284 0.9322 0.0000
vt 0.9309 0.9322 0.0000
vt 0.9296 0.9052 0.0000
vt 0.9308 0.9311 0.0000
vt 0.9260 0.9180 0.0000
vt 0.9299 0.9307 0.0000
vt 0.9263 0.9055 0.0000
vt 0.9272 0.9173 0.0000
vt 0.9412 0.5986 0.0000
vt 0.9411 0.5999 0.0000
vt 0.9380 0.5999 0.0000
vt 0.9379 0.5986 0.0000
vt 0.9294 0.9186 0.0000
vt 0.9275 0.9314 0.0000
vt 0.9262 0.9190 0.0000
vt 0.9293 0.9177 0.0000
vt 0.9177 0.5986 0.0000
vt 0.9176 0.5999 0.0000
vt 0.9145 0.5999 0.0000
vt 0.9144 0.5986 0.0000
vt 0.9304 0.9180 0.0000
vt 0.9290 0.9308 0.0000
vt 0.9273 0.9183 0.0000
vt 0.9303 0.9171 0.0000
vt 0.9412 0.5797 0.0000
vt 0.9422 0.5798 0.0000
vt 0.9419 0.5858 0.0000
vt 0.9412 0.5845 0.0000
vt 0.9132 0.5797 0.0000
vt 0.9165 0.5797 0.0000
vt 0.9165 0.5855 0.0000
vt 0.9132 0.5855 0.0000
vt 0.9369 0.5798 0.0000
vt 0.9379 0.5797 0.0000
vt 0.9378 0.5845 0.0000
vt 0.9371 0.5858 0.0000
vt 0.9177 0.5797 0.0000
vt 0.9187 0.5798 0.0000
vt 0.9184 0.5858 0.0000
vt 0.9177 0.5845 0.0000
vt 0.9284 0.9124 0.0000
vt 0.9284 0.9123 0.0000
vt 0.9134 0.5798 0.0000
vt 0.9144 0.5797 0.0000
vt 0.9143 0.5845 0.0000
vt 0.9136 0.5858 0.0000
vt 0.9412 0.6053 0.0000
vt 0.9379 0.6053 0.0000
vt 0.9379 0.6005 0.0000
vt 0.9412 0.6005 0.0000
vt 0.9367 0.6052 0.0000
vt 0.9371 0.5991 0.0000
vt 0.9165 0.6038 0.0000
vt 0.9132 0.6038 0.0000
vt 0.9132 0.5980 0.0000
vt 0.9165 0.5980 0.0000
vt 0.9424 0.6052 0.0000
vt 0.9420 0.5991 0.0000
vt 0.9177 0.6053 0.0000
vt 0.9144 0.6053 0.0000
vt 0.9144 0.6005 0.0000
vt 0.9177 0.6005 0.0000
vt 0.9132 0.6052 0.0000
vt 0.9136 0.5991 0.0000
vt 0.9275 0.9250 0.0000
vt 0.9189 0.6052 0.0000
vt 0.9185 0.5991 0.0000
vt 0.8930 0.6626 0.0000
vt 0.9692 0.6367 0.0000
# 261 texture coords

o ???_??
g ???_??
usemtl 01___Default
s 2
f 1/1/1 2/2/2 3/3/3 4/4/4 
s 4
f 5/5/5 6/6/6 7/7/7 8/8/8 
s 8
f 9/9/9 10/10/10 8/11/8 7/12/7 11/13/11 12/14/12 
s 16
f 12/15/12 11/16/11 13/17/13 14/18/14 
s 32
f 14/18/14 13/17/13 6/19/6 5/20/5 15/21/15 16/22/16 
s 64
f 16/22/16 15/21/15 10/23/10 9/24/9 
s 4
f 17/25/17 18/26/18 19/27/19 20/28/20 
f 21/29/19 22/30/20 23/31/17 24/32/18 
s off
f 13/17/13 11/16/11 19/33/19 18/34/18 
f 25/35/21 26/36/22 27/37/23 28/38/24 
f 7/7/7 6/6/6 17/25/17 20/28/20 
f 6/19/6 13/17/13 18/34/18 17/39/17 
f 10/23/10 15/21/15 23/40/17 22/41/20 
f 15/21/15 5/20/5 24/42/18 23/40/17 
f 5/5/5 8/8/8 21/29/19 24/32/18 
f 29/43/21 30/44/22 31/45/23 32/46/24 
f 9/47/9 12/48/12 33/49/25 34/50/26 
f 12/47/12 14/48/14 35/49/27 33/50/25 
f 14/47/14 16/48/16 36/49/28 35/50/27 
f 16/47/16 9/48/9 34/49/26 36/50/28 
f 34/51/26 33/52/25 37/53/29 38/54/30 
f 39/55/31 40/56/32 35/52/27 
f 35/51/27 36/52/28 41/53/33 39/54/31 
f 38/55/30 42/57/34 34/52/26 
f 11/58/11 7/59/7 43/60/35 44/61/36 
f 7/62/7 20/63/20 45/64/37 43/65/35 
f 20/63/20 19/66/19 46/67/38 45/64/37 
f 19/66/19 11/58/11 44/61/36 46/67/38 
f 8/58/8 10/59/10 47/60/35 48/61/36 
f 10/62/10 22/63/20 49/64/37 47/65/35 
f 22/63/20 21/68/19 50/67/38 49/64/37 
f 21/68/19 8/58/8 48/61/36 50/67/38 
f 44/69/36 43/70/35 51/71/30 52/72/29 
f 45/73/37 53/74/39 54/75/40 
f 45/73/37 46/76/38 55/77/41 53/74/39 
f 44/69/36 52/72/29 56/78/42 
f 48/69/36 47/70/35 57/71/30 58/72/29 
f 49/73/37 59/74/39 60/75/40 
f 49/73/37 50/76/38 61/77/41 59/74/39 
f 48/69/36 58/72/29 62/78/43 
s 2
f 41/79/33 63/80/44 2/2/2 
f 37/81/29 64/82/45 4/4/4 
s off
f 63/83/44 41/84/33 36/85/28 
f 63/83/44 36/85/28 34/52/26 42/57/34 
f 64/86/45 37/87/29 33/51/25 
f 64/86/45 33/51/25 35/52/27 40/56/32 
s 2
f 65/88/46 66/89/46 67/90/46 68/91/46 
f 69/92/46 70/93/46 71/94/46 72/95/46 
f 3/3/3 42/96/34 38/97/30 
f 4/4/4 3/3/3 38/97/30 37/81/29 
f 1/1/1 40/98/32 39/99/31 
f 2/2/2 1/1/1 39/99/31 41/79/33 
s off
f 73/100/47 74/101/47 75/102/15 76/103/15 
f 76/103/15 63/104/44 42/105/34 73/100/47 
f 77/106/48 78/107/49 74/108/47 73/109/47 
f 73/109/47 42/110/34 3/111/3 77/106/48 
f 77/112/48 3/113/3 2/114/2 79/115/5 
f 76/103/15 75/102/15 80/116/50 79/117/5 
f 79/117/5 2/118/2 63/104/44 76/103/15 
f 81/119/13 82/120/13 83/121/42 84/122/42 
f 84/122/42 64/123/45 40/124/32 81/119/13 
f 85/125/6 86/126/51 82/120/13 81/119/13 
f 81/119/13 40/124/32 1/127/1 85/125/6 
f 85/128/6 1/129/1 4/130/4 87/131/52 
f 84/132/42 83/133/42 88/134/53 87/135/52 
f 87/135/52 4/136/4 64/137/45 84/132/42 
f 74/101/47 89/138/54 90/139/55 75/102/15 
f 78/107/49 91/140/56 89/141/54 74/108/47 
f 80/142/50 92/143/57 91/144/56 78/145/49 
f 75/102/15 90/139/55 92/146/57 80/116/50 
f 82/120/13 93/147/57 94/148/56 83/121/42 
f 86/126/51 95/149/55 93/147/57 82/120/13 
f 88/150/53 96/151/54 95/152/55 86/150/51 
f 83/133/42 94/153/56 96/154/54 88/134/53 
f 78/107/49 77/106/48 87/135/52 88/134/53 
f 77/112/48 79/115/5 85/128/6 87/131/52 
f 79/117/5 80/116/50 86/126/51 85/125/6 
f 80/142/50 78/145/49 88/150/53 86/150/51 
f 97/155/58 98/156/59 99/157/33 100/158/17 
f 101/159/60 102/160/61 98/156/59 97/155/58 
f 100/158/17 99/157/33 103/161/62 104/162/63 
f 105/163/64 106/164/65 107/165/66 108/166/67 
f 109/167/68 110/168/62 106/164/65 105/163/64 
f 108/166/67 107/165/66 111/169/61 112/170/60 
f 65/88/46 68/91/46 69/92/46 72/95/46 
f 102/160/61 101/159/60 112/170/60 111/169/61 
f 91/144/56 92/143/57 95/152/55 96/151/54 
f 104/162/63 103/161/62 110/168/62 109/167/68 
f 67/90/46 66/89/46 99/157/33 98/156/59 
f 66/89/46 65/88/46 103/161/62 99/157/33 
f 65/88/46 72/95/46 110/168/62 103/161/62 
f 72/95/46 71/94/46 106/164/65 110/168/62 
f 71/94/46 70/93/46 107/165/66 106/164/65 
f 70/93/46 69/92/46 111/169/61 107/165/66 
f 69/92/46 68/91/46 102/160/61 111/169/61 
f 68/91/46 67/90/46 98/156/59 102/160/61 
f 90/171/55 89/172/54 97/173/58 100/174/17 
f 89/172/54 91/144/56 101/175/60 97/173/58 
f 91/144/56 96/151/54 112/176/60 101/175/60 
f 96/151/54 94/177/56 108/178/67 112/176/60 
f 94/177/56 93/179/57 105/180/64 108/178/67 
f 93/179/57 95/152/55 109/181/68 105/180/64 
f 95/152/55 92/143/57 104/182/63 109/181/68 
f 92/143/57 90/171/55 100/174/17 104/182/63 
f 54/183/40 53/184/39 55/185/41 113/186/42 114/187/69 115/188/69 
f 56/189/42 52/190/29 51/191/30 116/192/40 117/193/53 118/194/49 
f 61/185/41 119/186/43 120/195/70 
f 57/191/30 121/192/40 122/193/53 
f 56/189/42 118/194/49 123/196/48 
f 54/183/40 115/188/69 124/197/52 
f 62/189/43 125/194/49 126/198/48 
f 60/183/40 127/199/70 128/200/52 
f 129/201/71 130/202/72 131/203/73 132/204/74 
f 133/205/49 123/196/48 134/206/52 135/207/53 
f 124/197/52 115/188/69 114/187/69 136/208/48 
f 137/209/71 138/210/72 139/211/73 140/212/74 
f 141/213/49 126/198/48 142/214/52 143/215/53 
f 128/200/52 127/199/70 120/195/70 144/216/48 
f 136/217/48 133/218/49 145/219/32 146/220/75 
f 133/221/49 135/222/53 147/223/44 145/224/32 
f 135/225/53 124/226/52 148/227/76 147/228/44 
f 124/226/52 136/217/48 146/220/75 148/227/76 
f 144/229/48 141/230/49 149/231/32 150/232/75 
f 141/213/49 143/215/53 151/233/44 149/234/32 
f 143/235/53 128/236/52 152/237/77 151/238/44 
f 128/236/52 144/229/48 150/232/75 152/237/77 
f 118/239/49 117/240/53 153/241/78 154/242/79 
f 117/240/53 134/243/52 155/244/80 153/241/78 
f 134/245/52 123/246/48 156/247/81 155/248/80 
f 123/249/48 118/239/49 154/242/79 156/250/81 
f 125/251/49 122/252/53 157/253/78 158/254/79 
f 122/252/53 142/255/52 159/256/80 157/253/78 
f 142/214/52 126/198/48 160/257/81 159/257/80 
f 126/258/48 125/251/49 158/254/79 160/259/81 
f 145/219/32 26/36/22 25/35/21 146/220/75 
f 148/227/76 28/38/24 27/37/23 147/228/44 
f 146/220/75 25/35/21 28/38/24 148/227/76 
f 149/231/32 30/44/22 29/43/21 150/232/75 
f 152/237/77 32/46/24 31/45/23 151/238/44 
f 150/232/75 29/43/21 32/46/24 152/237/77 
f 153/241/78 131/203/73 130/202/72 154/242/79 
f 155/244/80 132/204/74 131/203/73 153/241/78 
f 154/242/79 130/202/72 129/201/71 156/250/81 
f 157/253/78 139/211/73 138/210/72 158/254/79 
f 159/256/80 140/212/74 139/211/73 157/253/78 
f 158/254/79 138/210/72 137/209/71 160/259/81 
f 129/201/71 132/204/74 27/37/23 26/36/22 
f 132/204/74 155/244/80 147/228/44 27/37/23 
f 155/248/80 156/247/81 145/224/32 147/223/44 
f 156/250/81 129/201/71 26/36/22 145/219/32 
f 137/209/71 140/212/74 31/45/23 30/44/22 
f 140/212/74 159/256/80 151/238/44 31/45/23 
f 159/257/80 160/257/81 149/234/32 151/233/44 
f 160/259/81 137/209/71 30/44/22 149/231/32 
f 121/260/40 57/71/30 47/70/35 
f 60/75/40 121/260/40 47/70/35 49/73/37 
f 125/194/49 62/189/43 58/190/29 
f 122/193/53 125/194/49 58/190/29 57/191/30 
f 127/199/70 60/183/40 59/184/39 
f 120/195/70 127/199/70 59/184/39 61/185/41 
f 126/198/48 141/213/49 62/189/43 
f 144/216/48 120/195/70 119/186/43 
f 141/213/49 144/216/48 119/186/43 62/189/43 
f 142/214/52 122/193/53 121/192/40 
f 143/215/53 142/214/52 121/192/40 60/183/40 
f 128/200/52 143/215/53 60/183/40 
f 62/78/43 119/261/43 50/76/38 48/69/36 
f 119/261/43 61/77/41 50/76/38 
f 116/260/40 51/71/30 43/70/35 
f 54/75/40 116/260/40 43/70/35 45/73/37 
f 113/261/42 55/77/41 46/76/38 
f 56/78/42 113/261/42 46/76/38 44/69/36 
f 134/206/52 117/193/53 116/192/40 
f 135/207/53 134/206/52 116/192/40 54/183/40 
f 124/197/52 135/207/53 54/183/40 
f 123/196/48 133/205/49 56/189/42 
f 136/208/48 114/187/69 113/186/42 
f 133/205/49 136/208/48 113/186/42 56/189/42 
# 146 polygons - 32 triangles

