# 3ds Max Wavefront OBJ Exporter v0.99 - (c)2007 guruware
# File Created: 27.04.2022 01:32:56

mtllib ??.mtl

#
# object ??
#

v  526.0948 0.0000 38.5255
v  526.0948 0.0000 -51.0745
v  315.7785 0.0000 -51.0745
v  315.7785 0.0000 38.5255
v  526.0948 -10.2892 -51.0745
v  526.0948 -10.2892 38.5255
v  315.7785 -10.2892 38.5255
v  315.7785 -10.2892 -51.0745
v  315.7785 -7.2892 47.0588
v  526.0948 -7.2892 47.0588
v  526.0948 0.0000 47.0588
v  315.7785 0.0000 47.0588
v  535.4465 -7.2892 38.5255
v  535.4465 -7.2892 -51.0745
v  535.4465 0.0000 -51.0745
v  535.4465 0.0000 38.5255
v  526.0948 -7.2892 -59.6078
v  315.7785 -7.2892 -59.6078
v  315.7785 0.0000 -59.6078
v  526.0948 0.0000 -59.6078
v  306.4269 -7.2892 -51.0745
v  306.4269 -7.2892 38.5255
v  306.4269 0.0000 38.5255
v  306.4269 0.0000 -51.0745
v  306.4269 -10.2892 -51.0745
v  306.4269 -10.2892 38.5255
v  526.0948 -10.2892 -59.6078
v  315.7785 -10.2892 -59.6078
v  535.4465 -10.2892 38.5255
v  535.4465 -10.2892 -51.0745
v  315.7785 -10.2892 47.0588
v  526.0948 -10.2892 47.0588
v  535.4465 -7.2892 47.0588
v  535.4465 0.0000 47.0588
v  306.4269 0.0000 47.0588
v  306.4269 -7.2892 47.0588
v  306.4269 -7.2892 -59.6078
v  306.4269 0.0000 -59.6078
v  535.4465 0.0000 -59.6078
v  535.4465 -7.2892 -59.6078
v  535.4465 -10.2892 -59.6078
v  306.4269 -10.2892 -59.6078
v  306.4269 -10.2892 47.0588
v  535.4465 -10.2892 47.0588
v  533.4465 -122.6151 40.5255
v  533.4465 -122.6151 45.0588
v  528.0948 -122.6151 45.0588
v  528.0948 -122.6151 40.5255
v  528.0948 -122.6151 -53.0745
v  528.0948 -122.6151 -57.6078
v  533.4465 -122.6151 -57.6078
v  533.4465 -122.6151 -53.0745
v  308.4269 -122.6151 -53.0745
v  308.4269 -122.6151 -57.6078
v  313.7785 -122.6151 -57.6078
v  313.7785 -122.6151 -53.0745
v  313.7785 -122.6151 40.5255
v  313.7785 -122.6151 45.0588
v  308.4269 -122.6151 45.0588
v  308.4269 -122.6151 40.5255
v  526.0948 -115.0241 47.0588
v  535.4465 -115.0241 47.0588
v  526.0948 -115.0241 38.5255
v  535.4465 -115.0241 38.5255
v  535.4465 -115.0241 -51.0745
v  535.4465 -115.0241 -59.6078
v  526.0948 -115.0241 -51.0745
v  526.0948 -115.0241 -59.6078
v  315.7785 -115.0241 -59.6078
v  306.4269 -115.0241 -59.6078
v  315.7785 -115.0241 -51.0745
v  306.4269 -115.0241 -51.0745
v  306.4269 -115.0241 38.5255
v  306.4269 -115.0241 47.0588
v  315.7785 -115.0241 38.5255
v  315.7785 -115.0241 47.0588
v  528.0948 -115.0241 45.0588
v  533.4465 -115.0241 45.0588
v  528.0948 -115.0241 40.5255
v  533.4465 -115.0241 40.5255
v  533.4465 -115.0241 -53.0745
v  533.4465 -115.0241 -57.6078
v  528.0948 -115.0241 -53.0745
v  528.0948 -115.0241 -57.6078
v  313.7785 -115.0241 -57.6078
v  308.4269 -115.0241 -57.6078
v  313.7785 -115.0241 -53.0745
v  308.4269 -115.0241 -53.0745
v  308.4269 -115.0241 40.5255
v  308.4269 -115.0241 45.0588
v  313.7785 -115.0241 40.5255
v  313.7785 -115.0241 45.0588
# 92 vertices

vn 0.0000 1.0000 -0.0000
vn -0.3015 -0.9045 0.3015
vn -0.3015 -0.9045 -0.3015
vn 0.3015 -0.9045 -0.3015
vn 0.3015 -0.9045 0.3015
vn 0.0000 0.0000 1.0000
vn 0.0000 0.7071 0.7071
vn 1.0000 0.0000 -0.0000
vn 0.7071 0.7071 -0.0000
vn 0.0000 0.0000 -1.0000
vn 0.0000 0.7071 -0.7071
vn -1.0000 0.0000 -0.0000
vn -0.7071 0.7071 -0.0000
vn -0.9045 -0.3015 0.3015
vn -0.9045 -0.3015 -0.3015
vn -0.3015 -0.3015 -0.9045
vn 0.3015 -0.3015 -0.9045
vn 0.9045 -0.3015 -0.3015
vn 0.9045 -0.3015 0.3015
vn 0.3015 -0.3015 0.9045
vn -0.3015 -0.3015 0.9045
vn 0.7071 0.0000 0.7071
vn 0.5774 0.5774 0.5774
vn -0.5774 0.5774 0.5774
vn -0.7071 0.0000 0.7071
vn -0.7071 0.0000 -0.7071
vn -0.5774 0.5774 -0.5774
vn 0.5774 0.5774 -0.5774
vn 0.7071 0.0000 -0.7071
vn -0.7071 -0.0000 0.7071
vn 0.7071 -0.0000 0.7071
vn 0.5774 -0.5774 -0.5774
vn 0.5774 -0.5774 0.5774
vn -0.5774 -0.5774 0.5774
vn -0.5774 -0.5774 -0.5774
# 35 vertex normals

vt 0.6081 0.0437 0.0000
vt 0.6170 0.2833 0.0000
vt 0.0548 0.3043 0.0000
vt 0.0459 0.0647 0.0000
vt 0.6076 0.3759 0.0000
vt 0.6076 0.6156 0.0000
vt 0.0450 0.6156 0.0000
vt 0.0450 0.3759 0.0000
vt 0.6838 0.3565 0.0000
vt 0.8402 0.3531 0.0000
vt 0.8437 0.5146 0.0000
vt 0.6873 0.5180 0.0000
vt 0.8347 0.7044 0.0000
vt 0.6864 0.7076 0.0000
vt 0.6830 0.5544 0.0000
vt 0.8314 0.5512 0.0000
vt 0.6863 0.7076 0.0000
vt 0.6331 0.0428 0.0000
vt 0.6420 0.2823 0.0000
vt 0.0298 0.3052 0.0000
vt 0.0209 0.0657 0.0000
vt 0.6327 0.3759 0.0000
vt 0.6327 0.6156 0.0000
vt 0.0200 0.6156 0.0000
vt 0.0200 0.3759 0.0000
vt 0.8558 0.3533 0.0000
vt 0.8593 0.5137 0.0000
vt 0.6717 0.5178 0.0000
vt 0.6682 0.3573 0.0000
vt 0.6715 0.7074 0.0000
vt 0.6682 0.5552 0.0000
vt 0.8462 0.5513 0.0000
vt 0.8495 0.7036 0.0000
vt 0.6179 0.3061 0.0000
vt 0.0556 0.3271 0.0000
vt 0.0450 0.0419 0.0000
vt 0.6072 0.0209 0.0000
vt 0.6077 0.6385 0.0000
vt 0.0450 0.6385 0.0000
vt 0.0450 0.3531 0.0000
vt 0.6076 0.3531 0.0000
vt 0.6429 0.3052 0.0000
vt 0.6322 0.0200 0.0000
vt 0.0200 0.0429 0.0000
vt 0.0306 0.3280 0.0000
vt 0.6987 0.2064 0.0000
vt 0.6987 0.2143 0.0000
vt 0.6881 0.2143 0.0000
vt 0.6881 0.2064 0.0000
vt 0.1068 0.9753 0.0000
vt 0.0818 0.9766 0.0000
vt 0.0678 0.6967 0.0000
vt 0.0928 0.6955 0.0000
vt 0.0590 0.9777 0.0000
vt 0.0450 0.6979 0.0000
vt 0.0340 0.9790 0.0000
vt 0.0200 0.6991 0.0000
vt 0.1296 0.9742 0.0000
vt 0.1156 0.6944 0.0000
vt 0.1689 0.8372 0.0000
vt 0.1682 0.8143 0.0000
vt 0.4483 0.8059 0.0000
vt 0.4490 0.8287 0.0000
vt 0.1675 0.7893 0.0000
vt 0.4475 0.7809 0.0000
vt 0.1668 0.7665 0.0000
vt 0.4469 0.7581 0.0000
vt 0.1697 0.8622 0.0000
vt 0.4497 0.8537 0.0000
vt 0.6877 0.0578 0.0000
vt 0.7091 0.0448 0.0000
vt 0.8546 0.2843 0.0000
vt 0.8332 0.2973 0.0000
vt 0.7286 0.0330 0.0000
vt 0.8741 0.2724 0.0000
vt 0.7500 0.0200 0.0000
vt 0.8955 0.2594 0.0000
vt 0.6682 0.0697 0.0000
vt 0.8137 0.3091 0.0000
vt 0.1640 0.9550 0.0000
vt 0.1640 0.9321 0.0000
vt 0.4442 0.9321 0.0000
vt 0.4442 0.9550 0.0000
vt 0.1641 0.9071 0.0000
vt 0.4442 0.9071 0.0000
vt 0.1641 0.8843 0.0000
vt 0.4442 0.8843 0.0000
vt 0.1640 0.9800 0.0000
vt 0.4442 0.9800 0.0000
vt 0.0730 0.6912 0.0000
vt 0.0873 0.6903 0.0000
vt 0.0676 0.6739 0.0000
vt 0.0731 0.6791 0.0000
vt 0.0926 0.6727 0.0000
vt 0.0874 0.6782 0.0000
vt 0.4711 0.8052 0.0000
vt 0.4535 0.8004 0.0000
vt 0.4656 0.8000 0.0000
vt 0.4531 0.7861 0.0000
vt 0.4704 0.7802 0.0000
vt 0.4652 0.7857 0.0000
vt 0.9074 0.2789 0.0000
vt 0.8860 0.2919 0.0000
vt 0.8878 0.2846 0.0000
vt 0.9000 0.2771 0.0000
vt 0.8815 0.2742 0.0000
vt 0.8937 0.2668 0.0000
vt 0.4671 0.9550 0.0000
vt 0.4617 0.9603 0.0000
vt 0.4496 0.9603 0.0000
vt 0.4671 0.9800 0.0000
vt 0.4617 0.9746 0.0000
vt 0.4496 0.9746 0.0000
vt 0.7096 0.2252 0.0000
vt 0.6772 0.2252 0.0000
vt 0.6772 0.1956 0.0000
vt 0.7096 0.1956 0.0000
# 117 texture coords

o ??
g ??
usemtl 08___Default
s 2
f 1/1/1 2/2/1 3/3/1 4/4/1 
s 4
f 5/5/2 6/6/3 7/7/4 8/8/5 
s 8
f 9/9/6 10/10/6 11/11/7 12/12/7 
s 16
f 13/9/8 14/10/8 15/11/9 16/12/9 
s 32
f 17/9/10 18/10/10 19/11/11 20/12/11 
s 64
f 21/9/12 22/10/12 23/11/13 24/12/13 
s off
f 22/13/12 21/14/12 25/15/14 26/16/15 
f 18/13/10 17/17/10 27/15/16 28/16/17 
f 14/13/8 13/14/8 29/15/18 30/16/19 
f 10/13/6 9/17/6 31/15/20 32/16/21 
s 2
f 16/18/9 15/19/9 2/2/1 1/1/1 
f 24/20/13 23/21/13 4/4/1 3/3/1 
s 4
f 30/22/19 29/23/18 6/6/3 5/5/2 
f 26/24/15 25/25/14 8/8/5 7/7/4 
s 8
f 10/10/6 33/26/22 34/27/23 11/11/7 
f 12/12/7 35/28/24 36/29/25 9/9/6 
s 32
f 18/10/10 37/26/26 38/27/27 19/11/11 
f 20/12/11 39/28/28 40/29/29 17/9/10 
s off
f 17/17/10 40/30/29 41/31/29 27/15/16 
f 28/16/17 42/32/26 37/33/26 18/13/10 
f 9/17/6 36/30/25 43/31/30 31/15/20 
f 32/16/21 44/32/31 33/33/22 10/13/6 
s 2
f 2/2/1 20/34/11 19/35/11 3/3/1 
f 4/4/1 12/36/7 11/37/7 1/1/1 
s 4
f 6/6/3 32/38/21 31/39/20 7/7/4 
f 8/8/5 28/40/17 27/41/16 5/5/2 
s 16
f 14/10/8 40/26/29 39/27/28 15/11/9 
f 16/12/9 34/28/23 33/29/22 13/9/8 
s 64
f 22/10/12 36/26/25 35/27/24 23/11/13 
f 24/12/13 38/28/27 37/29/26 21/9/12 
s off
f 21/14/12 37/30/26 42/31/26 25/15/14 
f 26/16/15 43/32/30 36/33/25 22/13/12 
f 13/14/8 33/30/22 44/31/31 29/15/18 
f 30/16/19 41/32/29 40/33/29 14/13/8 
s 2
f 15/19/9 39/42/28 20/34/11 2/2/1 
f 1/1/1 11/37/7 34/43/23 16/18/9 
f 23/21/13 35/44/24 12/36/7 4/4/1 
f 3/3/1 19/35/11 38/45/27 24/20/13 
s 4
f 45/46/32 46/47/33 47/48/34 48/49/35 
f 49/48/34 50/49/35 51/46/32 52/47/33 
f 53/48/34 54/49/35 55/46/32 56/47/33 
f 57/46/32 58/47/33 59/48/34 60/49/35 
s off
f 44/50/31 32/51/21 61/52/34 62/53/33 
f 32/51/21 6/54/3 63/55/35 61/52/34 
f 6/54/3 29/56/18 64/57/32 63/55/35 
f 29/58/18 44/50/31 62/53/33 64/59/32 
f 41/60/29 30/61/19 65/62/33 66/63/32 
f 30/61/19 5/64/2 67/65/34 65/62/33 
f 5/64/2 27/66/16 68/67/35 67/65/34 
f 27/68/16 41/60/29 66/63/32 68/69/35 
f 42/70/26 28/71/17 69/72/32 70/73/35 
f 28/71/17 8/74/5 71/75/33 69/72/32 
f 8/74/5 25/76/14 72/77/34 71/75/33 
f 25/78/14 42/70/26 70/73/35 72/79/34 
f 43/80/30 26/81/15 73/82/35 74/83/34 
f 26/81/15 7/84/4 75/85/32 73/82/35 
f 7/84/4 31/86/20 76/87/33 75/85/32 
f 31/88/20 43/80/30 74/83/34 76/89/33 
f 62/53/33 61/52/34 77/90/2 78/91/5 
f 61/52/34 63/92/35 79/93/3 77/90/2 
f 63/92/35 64/94/32 80/95/4 79/93/3 
f 64/94/32 62/53/33 78/91/5 80/95/4 
f 66/96/32 65/62/33 81/97/5 82/98/4 
f 65/62/33 67/65/34 83/99/2 81/97/5 
f 67/65/34 68/100/35 84/101/3 83/99/2 
f 68/100/35 66/96/32 82/98/4 84/101/3 
f 70/102/35 69/103/32 85/104/4 86/105/3 
f 69/103/32 71/75/33 87/106/5 85/104/4 
f 71/75/33 72/77/34 88/107/2 87/106/5 
f 72/77/34 70/102/35 86/105/3 88/107/2 
f 74/83/34 73/108/35 89/109/3 90/110/2 
f 73/108/35 75/111/32 91/112/4 89/109/3 
f 75/111/32 76/89/33 92/113/5 91/112/4 
f 76/89/33 74/83/34 90/110/2 92/113/5 
f 78/114/5 77/115/2 47/48/34 46/47/33 
f 77/115/2 79/116/3 48/49/35 47/48/34 
f 79/116/3 80/117/4 45/46/32 48/49/35 
f 80/117/4 78/114/5 46/47/33 45/46/32 
f 82/117/4 81/114/5 52/47/33 51/46/32 
f 81/114/5 83/115/2 49/48/34 52/47/33 
f 83/115/2 84/116/3 50/49/35 49/48/34 
f 84/116/3 82/117/4 51/46/32 50/49/35 
f 86/116/3 85/117/4 55/46/32 54/49/35 
f 85/117/4 87/114/5 56/47/33 55/46/32 
f 87/114/5 88/115/2 53/48/34 56/47/33 
f 88/115/2 86/116/3 54/49/35 53/48/34 
f 90/115/2 89/116/3 60/49/35 59/48/34 
f 89/116/3 91/117/4 57/46/32 60/49/35 
f 91/117/4 92/114/5 58/47/33 57/46/32 
f 92/114/5 90/115/2 59/48/34 58/47/33 
# 90 polygons

