# 3ds Max Wavefront OBJ Exporter v0.99 - (c)2007 guruware
# File Created: 27.04.2022 01:32:29

mtllib ???_??.mtl

#
# object ???_??
#

v  220.9905 -41.5261 -76.1415
v  220.9905 -41.5261 -118.4920
v  273.0566 -41.5261 -118.4920
v  273.0566 -41.5261 -76.1415
v  229.0709 -10.7519 -93.9522
v  264.9763 -10.7519 -93.9522
v  264.9763 -10.7519 -100.6813
v  229.0709 -10.7519 -100.6813
v  273.0566 -37.7062 -76.1415
v  220.9905 -37.7062 -76.1415
v  273.0566 -37.7062 -118.4920
v  220.9905 -37.7062 -118.4920
v  270.9230 -37.7062 -78.2775
v  223.1241 -37.7062 -78.2775
v  270.9230 -37.7062 -116.3559
v  223.1241 -37.7062 -116.3559
v  270.9230 -28.1005 -78.2775
v  268.9712 -28.1005 -78.2775
v  270.9230 -28.1005 -116.3559
v  223.1241 -28.1005 -116.3559
v  225.0759 -28.1005 -116.3559
v  223.1241 -28.1005 -78.2775
v  225.0759 -28.1005 -78.2775
v  266.5728 -10.7519 -100.6813
v  266.5728 -10.7519 -93.9522
v  268.9712 -28.1005 -116.3559
v  227.4743 -10.7519 -93.9522
v  227.4743 -10.7519 -100.6813
# 28 vertices

vn -0.5774 -0.5774 0.5774
vn -0.5774 -0.5774 -0.5774
vn 0.5774 -0.5774 -0.5774
vn 0.5774 -0.5774 0.5774
vn 0.0000 0.9019 0.4320
vn 0.0000 0.9019 -0.4319
vn 0.5774 0.5774 0.5774
vn -0.5774 0.5774 0.5774
vn 0.5774 0.5774 -0.5774
vn -0.5774 0.5774 -0.5774
vn 0.3015 0.9045 0.3015
vn -0.3015 0.9045 0.3015
vn 0.3015 0.9045 -0.3015
vn -0.3015 0.9045 -0.3015
vn 0.6500 0.2845 0.7046
vn 0.0000 0.3323 0.9432
vn 0.7071 0.0000 -0.7071
vn 0.6500 0.2845 -0.7046
vn -0.6500 0.2845 -0.7046
vn 0.0000 0.3323 -0.9432
vn -0.6500 0.2845 0.7046
vn 0.5367 0.7749 -0.3340
vn 0.5367 0.7749 0.3340
vn -0.5367 0.7749 0.3340
vn -0.5367 0.7749 -0.3340
# 25 vertex normals

vt 0.0200 0.9800 0.0000
vt 0.0200 0.7262 0.0000
vt 0.3324 0.7262 0.0000
vt 0.3324 0.9800 0.0000
vt 0.5366 0.2943 0.0000
vt 0.7514 0.3104 0.0000
vt 0.7484 0.3507 0.0000
vt 0.5335 0.3345 0.0000
vt 0.0200 0.6123 0.0000
vt 0.2738 0.6123 0.0000
vt 0.2738 0.6380 0.0000
vt 0.0200 0.6380 0.0000
vt 0.6214 0.7079 0.0000
vt 0.9338 0.7079 0.0000
vt 0.9210 0.7207 0.0000
vt 0.6342 0.7207 0.0000
vt 0.9338 0.9618 0.0000
vt 0.9210 0.9490 0.0000
vt 0.6214 0.9618 0.0000
vt 0.6342 0.9490 0.0000
vt 0.5037 0.0549 0.0000
vt 0.4958 0.1191 0.0000
vt 0.4842 0.1177 0.0000
vt 0.5442 0.7276 0.0000
vt 0.4473 0.5210 0.0000
vt 0.5059 0.4935 0.0000
vt 0.6027 0.7002 0.0000
vt 0.1626 0.4860 0.0000
vt 0.1705 0.4219 0.0000
vt 0.1821 0.4233 0.0000
vt 0.0200 0.3474 0.0000
vt 0.0473 0.1208 0.0000
vt 0.1115 0.1286 0.0000
vt 0.0842 0.3552 0.0000
vt 0.5239 0.1430 0.0000
vt 0.7866 0.1628 0.0000
vt 0.6541 0.5278 0.0000
vt 0.6712 0.5643 0.0000
vt 0.7610 0.5019 0.0000
vt 0.4984 0.4821 0.0000
vt 0.2190 0.2361 0.0000
vt 0.2142 0.2762 0.0000
vt 0.4427 0.2637 0.0000
vt 0.4522 0.2648 0.0000
vt 0.4474 0.3049 0.0000
vt 0.4379 0.3037 0.0000
vt 0.2237 0.2773 0.0000
vt 0.2285 0.2373 0.0000
vt 0.2111 0.0842 0.0000
vt 0.2228 0.0856 0.0000
vt 0.4552 0.4568 0.0000
vt 0.4436 0.4554 0.0000
vt 0.2190 0.0200 0.0000
# 53 texture coords

o ???_??
g ???_??
usemtl 13___Default
s 2
f 1/1/1 2/2/2 3/3/3 4/4/4 
s 4
f 5/5/5 6/6/5 7/7/6 8/8/6 
s 8
f 1/9/1 4/10/4 9/11/7 10/12/8 
s 16
f 4/9/4 3/10/3 11/11/9 9/12/7 
s 32
f 3/9/3 2/10/2 12/11/10 11/12/9 
s 64
f 2/9/2 1/10/1 10/11/8 12/12/10 
s off
f 10/13/8 9/14/7 13/15/11 14/16/12 
f 9/14/7 11/17/9 15/18/13 13/15/11 
f 11/17/9 12/19/10 16/20/14 15/18/13 
f 12/19/10 10/13/8 14/16/12 16/20/14 
f 13/21/11 17/22/15 18/23/16 
f 13/24/11 15/25/13 15/25/17 19/26/18 17/27/15 
f 16/28/14 20/29/19 21/30/20 
f 16/31/14 14/32/12 22/33/21 20/34/19 
f 23/35/16 18/36/16 6/6/5 5/5/5 
f 17/27/15 19/26/18 24/37/22 25/38/23 
f 26/39/20 21/40/20 8/8/6 7/7/6 
f 20/34/19 22/33/21 27/41/24 28/42/25 
s 4
f 6/43/5 25/44/23 24/45/22 7/46/6 
f 8/47/6 28/42/25 27/41/24 5/48/5 
s off
f 18/23/16 17/22/15 25/44/23 6/43/5 
f 5/48/5 27/41/24 22/49/21 23/50/16 
f 21/30/20 20/29/19 28/42/25 8/47/6 
f 7/46/6 24/45/22 19/51/18 26/52/20 
f 26/52/20 19/51/18 15/25/17 
f 21/30/20 26/52/20 15/25/17 15/25/13 16/28/14 
f 23/50/16 22/49/21 14/53/12 
f 18/23/16 23/50/16 14/53/12 13/21/11 
# 24 polygons - 4 triangles

