# 3ds Max Wavefront OBJ Exporter v0.99 - (c)2007 guruware
# File Created: 27.04.2022 01:32:45

mtllib ???.mtl

#
# object ???
#

v  227.4476 -127.0827 -81.4280
v  227.4476 -127.0827 -113.2454
v  266.3356 -127.0827 -113.2454
v  266.3356 -127.0827 -81.4280
v  229.0413 -115.1987 -83.0216
v  264.7420 -115.1987 -83.0216
v  264.7420 -115.1987 -111.6518
v  229.0413 -115.1987 -111.6518
v  270.0980 -38.5713 -78.3496
v  223.6852 -38.5713 -78.3496
v  270.0980 -38.5713 -116.3237
v  223.6852 -38.5713 -116.3237
v  268.1960 -38.5713 -80.2516
v  225.5872 -38.5713 -80.2516
v  268.1960 -38.5713 -114.4217
v  225.5872 -38.5713 -114.4217
# 16 vertices

vn -0.5655 -0.5976 0.5684
vn -0.5655 -0.5976 -0.5684
vn 0.5655 -0.5976 -0.5684
vn 0.5655 -0.5976 0.5684
vn 0.5647 0.5986 -0.5681
vn -0.5647 0.5986 -0.5681
vn -0.5647 0.5986 0.5681
vn 0.5647 0.5986 0.5681
vn 0.5886 0.5571 0.5858
vn -0.5886 0.5571 0.5858
vn 0.5886 0.5571 -0.5858
vn -0.5886 0.5571 -0.5858
vn -0.2894 0.9129 -0.2878
vn 0.2894 0.9129 -0.2878
vn -0.2894 0.9129 0.2878
vn 0.2894 0.9129 0.2878
# 16 vertex normals

vt 0.0200 0.3165 0.0000
vt 0.0200 0.1901 0.0000
vt 0.1744 0.1901 0.0000
vt 0.1744 0.3165 0.0000
vt 0.1618 0.4512 0.0000
vt 0.0200 0.4512 0.0000
vt 0.0200 0.3376 0.0000
vt 0.1618 0.3376 0.0000
vt 0.6130 0.5370 0.0000
vt 0.6130 0.3825 0.0000
vt 0.9647 0.3676 0.0000
vt 0.9647 0.5519 0.0000
vt 0.6032 0.2566 0.0000
vt 0.9531 0.2172 0.0000
vt 0.5795 0.1040 0.0000
vt 0.9247 0.0351 0.0000
vt 0.6032 0.6630 0.0000
vt 0.9531 0.7023 0.0000
vt 0.0200 0.0200 0.0000
vt 0.2043 0.0200 0.0000
vt 0.1968 0.0276 0.0000
vt 0.0276 0.0276 0.0000
vt 0.2043 0.1708 0.0000
vt 0.1968 0.1633 0.0000
vt 0.0200 0.1708 0.0000
vt 0.0276 0.1633 0.0000
vt 0.1554 0.6362 0.0000
vt 0.3246 0.6392 0.0000
vt 0.3055 0.9434 0.0000
vt 0.1637 0.9409 0.0000
vt 0.4596 0.6526 0.0000
vt 0.4186 0.9546 0.0000
vt 0.6261 0.6829 0.0000
vt 0.5581 0.9800 0.0000
vt 0.0200 0.6448 0.0000
vt 0.0503 0.9481 0.0000
# 36 texture coords

o ???
g ???
usemtl 09___Default
s 2
f 1/1/1 2/2/2 3/3/3 4/4/4 
s 4
f 5/5/5 6/6/6 7/7/7 8/8/8 
s 8
f 1/9/1 4/10/4 9/11/9 10/12/10 
s 16
f 4/10/4 3/13/3 11/14/11 9/11/9 
s 32
f 3/13/3 2/15/2 12/16/12 11/14/11 
s 64
f 2/17/2 1/9/1 10/12/10 12/18/12 
s off
f 10/19/10 9/20/9 13/21/13 14/22/14 
f 9/20/9 11/23/11 15/24/15 13/21/13 
f 11/23/11 12/25/12 16/26/16 15/24/15 
f 12/25/12 10/19/10 14/22/14 16/26/16 
f 14/27/14 13/28/13 6/29/6 5/30/5 
f 13/28/13 15/31/15 7/32/7 6/29/6 
f 15/31/15 16/33/16 8/34/8 7/32/7 
f 16/35/16 14/27/14 5/30/5 8/36/8 
# 14 polygons

